<?xml version="1.0"?>
<svg xmlns="http://www.w3.org/2000/svg" xmlns:xlink="http://www.w3.org/1999/xlink" id="Gradient" viewBox="0 0 512 512" width="512" height="512"><defs><linearGradient id="linear-gradient" x1="256" y1="495.988" x2="256" y2="16" gradientUnits="userSpaceOnUse"><stop offset="0" stop-color="#27c1e6"/><stop offset="0.5" stop-color="#c275e9"/><stop offset="1" stop-color="#f2515d"/></linearGradient></defs><path d="M489.392,350.165l-28.4-142.01A40.109,40.109,0,0,0,421.766,176H264V64a48,48,0,0,0-96,0,32,32,0,0,1-64,0V24a8,8,0,0,0-16,0V64a48,48,0,0,0,96,0,32,32,0,0,1,64,0V176H90.234A40.109,40.109,0,0,0,51.01,208.155l-28.4,142.01A341.089,341.089,0,0,0,16,416.906v.167A79.7,79.7,0,0,0,34.654,468.3a77.39,77.39,0,0,0,47.4,26.773,78.13,78.13,0,0,0,80.845-40.16l26.189-48.64A27.105,27.105,0,0,1,212.99,392h86.02a27.105,27.105,0,0,1,23.9,14.273l26.19,48.641a78.343,78.343,0,0,0,78.612,40.471C466.642,490.505,496,456.813,496,417.016v-.11A341.089,341.089,0,0,0,489.392,350.165ZM200,192H312v32a24.027,24.027,0,0,1-24,24H224a24.027,24.027,0,0,1-24-24ZM125.98,471.21A62.522,62.522,0,0,1,84.5,479.26C54.568,474.648,32,447.914,32,417.073v-.167a325.054,325.054,0,0,1,6.3-63.6l1.282-6.409L145.49,452.8A62.14,62.14,0,0,1,125.98,471.21ZM337,398.688A43.087,43.087,0,0,0,299.01,376H212.99a43.087,43.087,0,0,0-37.985,22.688l-21.35,39.653-110.3-110.3L66.7,211.293A24.065,24.065,0,0,1,90.234,192H184v32a40.045,40.045,0,0,0,40,40h64a40.045,40.045,0,0,0,40-40V192h93.766A24.065,24.065,0,0,1,445.3,211.293l23.349,116.744-110.3,110.3ZM480,417.016c0,31.748-23.335,58.614-54.281,62.493A62.106,62.106,0,0,1,366.51,452.8l105.91-105.91L473.7,353.3a325.054,325.054,0,0,1,6.3,63.6ZM168,272H144V248a8,8,0,0,0-8-8H104a8,8,0,0,0-8,8v24H72a8,8,0,0,0-8,8v32a8,8,0,0,0,8,8H96v24a8,8,0,0,0,8,8h32a8,8,0,0,0,8-8V320h24a8,8,0,0,0,8-8V280A8,8,0,0,0,168,272Zm-8,32H136a8,8,0,0,0-8,8v24H112V312a8,8,0,0,0-8-8H80V288h24a8,8,0,0,0,8-8V256h16v24a8,8,0,0,0,8,8h24Zm232,48a56,56,0,1,0-56-56A56.064,56.064,0,0,0,392,352Zm0-96a40,40,0,1,1-40,40A40.045,40.045,0,0,1,392,256ZM224,360a24,24,0,1,1,24-24A24.027,24.027,0,0,1,224,360Zm0-32a8,8,0,1,0,8,8A8.009,8.009,0,0,0,224,328Zm64,32a24,24,0,1,1,24-24A24.027,24.027,0,0,1,288,360Zm0-32a8,8,0,1,0,8,8A8.009,8.009,0,0,0,288,328Z" style="fill:url(#linear-gradient)"/></svg>
