<?xml version="1.0"?>
<svg xmlns="http://www.w3.org/2000/svg" xmlns:xlink="http://www.w3.org/1999/xlink" id="Gradient" viewBox="0 0 512 512" width="512" height="512"><defs><linearGradient id="linear-gradient" x1="256" y1="496" x2="256" y2="16.001" gradientUnits="userSpaceOnUse"><stop offset="0" stop-color="#27c1e6"/><stop offset="0.5" stop-color="#c275e9"/><stop offset="1" stop-color="#f2515d"/></linearGradient></defs><path d="M104,72a10.3,10.3,0,0,0,3.938,7.785l2.494,2.122a26.044,26.044,0,0,1,9.509,21.659c-.571,8.337-5.258,15.9-12.858,20.753l-3.8,2.424a8,8,0,0,1-8.611-13.486l3.8-2.424c3.326-2.123,5.282-5.093,5.506-8.362a10.093,10.093,0,0,0-3.917-8.379l-2.5-2.122a25.625,25.625,0,0,1,0-39.939l2.5-2.124a8,8,0,0,1,10.37,12.186l-2.494,2.123A10.293,10.293,0,0,0,104,72Zm211.938-7.784,2.494-2.123a8,8,0,0,0-10.37-12.186l-2.5,2.124a25.625,25.625,0,0,0,0,39.939l2.5,2.122a10.093,10.093,0,0,1,3.917,8.379c-.224,3.269-2.18,6.239-5.506,8.362l-3.8,2.424a8,8,0,1,0,8.611,13.486l3.8-2.424c7.6-4.851,12.287-12.416,12.858-20.753a26.044,26.044,0,0,0-9.509-21.659l-2.494-2.122a9.663,9.663,0,0,1,0-15.569Zm-104-32,2.494-2.123a8,8,0,0,0-10.37-12.186l-2.5,2.124a25.625,25.625,0,0,0,0,39.939l2.5,2.122a10.093,10.093,0,0,1,3.917,8.379c-.224,3.269-2.18,6.239-5.506,8.362l-3.8,2.424a8,8,0,1,0,8.611,13.486l3.8-2.424c7.6-4.851,12.287-12.416,12.858-20.753a26.044,26.044,0,0,0-9.509-21.659l-2.494-2.122A10.3,10.3,0,0,1,208,40,10.293,10.293,0,0,1,211.938,32.216ZM192,280a8,8,0,1,0-8-8A8,8,0,0,0,192,280Zm-72-56a8,8,0,1,0-8,8A8,8,0,0,0,120,224Zm184,8a8,8,0,1,0-8-8A8,8,0,0,0,304,232Zm-80-64a8,8,0,1,0-8-8A8,8,0,0,0,224,168Zm16,72a8,8,0,1,0-8-8A8,8,0,0,0,240,240Zm-64-32a8,8,0,1,0-8-8A8,8,0,0,0,176,208ZM493.657,378.343A8,8,0,0,1,496,384V488a8,8,0,0,1-8,8H296a55.982,55.982,0,0,1-50.586-80H40a8,8,0,0,1-7.589-5.47l-16-48A8,8,0,0,1,24,352h94.776l-9.155-64.06A63.993,63.993,0,1,1,129.779,162.5C137.513,133.468,169.661,112,208,112s70.486,21.468,78.22,50.5a64,64,0,1,1,20.159,125.44L297.224,352h54.994a40,40,0,0,1,60.8-51.554l56.5,53.758.142.139ZM281.062,352l9.358-65.478a64.087,64.087,0,0,1-10.092-3.062,67.531,67.531,0,0,1-20.366,21.3L256.591,352ZM200,352V319.677a95.721,95.721,0,0,1-27.3-6.189L175.449,352Zm16,0h24.551l2.748-38.512a95.721,95.721,0,0,1-27.3,6.189ZM112,272a48,48,0,0,0,23.421-6.105,8,8,0,0,1,11.325,3.97C154.9,289.963,180.091,304,208,304s53.1-14.037,61.254-34.136a8,8,0,0,1,11.325-3.969,47.993,47.993,0,1,0,2.783-85.241A8,8,0,0,1,271.93,173.9c-.7-12.013-7.41-23.349-18.9-31.919C240.936,132.965,224.945,128,208,128s-32.936,4.965-45.026,13.979c-11.494,8.57-18.207,19.906-18.9,31.918a8,8,0,0,1-11.432,6.757A47.552,47.552,0,0,0,112,176a48,48,0,0,0,0,96Zm22.938,80h24.471l-3.371-47.239a67.521,67.521,0,0,1-20.366-21.3,64.087,64.087,0,0,1-10.092,3.062ZM45.766,400h211.1A55.8,55.8,0,0,1,296,384h87.432l-16-16H35.1ZM480,387.313l-21.586-21.585-56.5-53.755c-.048-.046-.1-.092-.143-.14a24,24,0,0,0-33.941,33.941L408.4,386.343A8,8,0,0,1,402.745,400H296a40,40,0,0,0,0,80H480Z" style="fill:url(#linear-gradient)"/></svg>
