<?xml version="1.0"?>
<svg xmlns="http://www.w3.org/2000/svg" xmlns:xlink="http://www.w3.org/1999/xlink" id="Gradient" viewBox="0 0 512 512" width="512" height="512"><defs><linearGradient id="linear-gradient" x1="256" y1="496" x2="256" y2="16" gradientUnits="userSpaceOnUse"><stop offset="0" stop-color="#27c1e6"/><stop offset="0.5" stop-color="#c275e9"/><stop offset="1" stop-color="#f2515d"/></linearGradient></defs><path d="M176,216v80a8,8,0,0,1-16,0V216a8,8,0,0,1,16,0ZM16.129,486.569,31.869,400l-15.74-86.569A8,8,0,0,1,24,304H80V123.314L55.029,98.344A23.845,23.845,0,0,1,48,81.373V56a40,40,0,0,1,80,0V81.373a23.845,23.845,0,0,1-7.029,16.971L96,123.314V304h32V200a23.948,23.948,0,0,1,8.26-18.095l10.756-53.755A40.1,40.1,0,0,1,184,96.07V72a24.028,24.028,0,0,1,24-24h32a24.028,24.028,0,0,1,24,24V96.07a40.1,40.1,0,0,1,36.984,32.081l10.756,53.754A23.948,23.948,0,0,1,320,200v8h72a32.043,32.043,0,0,1,27.641-31.695A40.009,40.009,0,0,1,470.6,160.423a8,8,0,0,1-6.645,14.555,24.028,24.028,0,0,0-26.193,4.139A32.04,32.04,0,0,1,456,208h32a8,8,0,0,1,7.589,10.53l-8.71,26.12A39.927,39.927,0,0,1,448.94,272h-3.174L422.88,340.65A39.914,39.914,0,0,1,392,367.369V480h40a8,8,0,0,1,0,16H336a8,8,0,0,1,0-16h40V367.369a39.917,39.917,0,0,1-30.881-26.723L322.234,272H320v52.83a40.466,40.466,0,0,1-.772,7.835L290.415,476.709A24.052,24.052,0,0,1,266.88,496H181.12a24.053,24.053,0,0,1-23.536-19.3L134.85,363.047,128.131,400l15.74,86.569A8,8,0,0,1,136,496H24a8,8,0,0,1-7.871-9.431ZM66.344,87.029,88,108.687l21.656-21.658A7.94,7.94,0,0,0,112,81.373V56a24,24,0,0,0-48,0V81.373A7.94,7.94,0,0,0,66.344,87.029ZM418.232,304H349.769L360.3,335.59A23.95,23.95,0,0,0,383.06,352h1.88A23.949,23.949,0,0,0,407.7,335.594ZM408,208a16,16,0,1,0,16-16A16.019,16.019,0,0,0,408,208ZM291.1,224l5.2,15.59A23.952,23.952,0,0,0,319.06,256H392a8,8,0,0,1,0,16H339.1l5.334,16h79.132l8.844-26.53A8,8,0,0,1,440,256h8.94A23.949,23.949,0,0,0,471.7,239.594L476.9,224H451.7a31.969,31.969,0,0,1-55.39,0ZM304,208v-8a8.009,8.009,0,0,0-8-8H152a8.009,8.009,0,0,0-8,8V324.83a24.334,24.334,0,0,0,.468,4.726L173.274,473.57A8.015,8.015,0,0,0,181.12,480h85.76a8.013,8.013,0,0,0,7.845-6.424l28.81-144.035A24.3,24.3,0,0,0,304,324.83V269.063a39.919,39.919,0,0,1-22.881-24.417l-8.708-26.116A8,8,0,0,1,280,208ZM200,72V96h48V72a8.009,8.009,0,0,0-8-8H208A8.009,8.009,0,0,0,200,72ZM153.759,176H294.241L285.3,131.289A24.056,24.056,0,0,0,261.77,112H186.23a24.056,24.056,0,0,0-23.525,19.288ZM33.586,320l13.091,72h66.646l13.091-72Zm0,160h92.828l-13.091-72H46.677Z" style="fill:url(#linear-gradient)"/></svg>
