<?xml version="1.0"?>
<svg xmlns="http://www.w3.org/2000/svg" xmlns:xlink="http://www.w3.org/1999/xlink" id="Gradient" viewBox="0 0 512 512" width="512" height="512"><defs><linearGradient id="linear-gradient" x1="256" y1="488" x2="256" y2="24" gradientUnits="userSpaceOnUse"><stop offset="0" stop-color="#27c1e6"/><stop offset="0.5" stop-color="#c275e9"/><stop offset="1" stop-color="#f2515d"/></linearGradient></defs><path d="M496,400a88,88,0,0,0-120.037-81.962L347.9,261.913a190.526,190.526,0,0,0,19.629-5.323c13.439-4.481,23.664-9.907,30.6-16.222a34.03,34.03,0,0,1-4.782,27.194,8,8,0,1,0,13.312,8.876c18.743-28.115.775-55.714,0-56.876a8,8,0,0,0-14.245,1.908c-4.677,14.029-37.779,23.767-57.542,26.61a8,8,0,0,0-6.024,11.5L339.056,280H204.944l-8-16H216a8,8,0,0,0,0-16H152a8,8,0,0,0,0,16h27.056l11.413,22.827-18.076,21.089-31.271-26.062A8,8,0,0,0,136,280H40a8,8,0,0,0,0,16h93.1l28.875,24.065-7.041,8.214A87.968,87.968,0,1,0,53.462,472H24a8,8,0,0,0,0,16H488a8,8,0,0,0,0-16H458.538A87.958,87.958,0,0,0,496,400ZM334.606,296l-53.889,62.87a47.927,47.927,0,0,0-38.727-4.779L212.944,296ZM288,400a32.057,32.057,0,0,1-24,30.987V402.959L282.225,381.7A31.814,31.814,0,0,1,288,400Zm-53-24.114L243.056,392H225.013A32.046,32.046,0,0,1,235,375.886Zm22.768,9.76L249.3,368.711a31.925,31.925,0,0,1,20.785,2.564ZM248,408v22.987A32.118,32.118,0,0,1,225.013,408Zm-20.31-46.73A48.053,48.053,0,0,0,208.679,392H191.633a87.74,87.74,0,0,0-24.557-53.3l31.157-36.35ZM159.419,392a55.789,55.789,0,0,0-13.3-28.845l10.49-12.238A71.751,71.751,0,0,1,175.545,392ZM96.732,403.343A8,8,0,0,0,104,408H143.2a40.036,40.036,0,1,1-19.773-42.951l-25.5,29.745A8,8,0,0,0,96.732,403.343ZM121.394,392l14.168-16.53A39.853,39.853,0,0,1,143.2,392ZM32,400a71.961,71.961,0,0,1,112.474-59.512l-10.5,12.247A55.98,55.98,0,1,0,159.419,408h16.126A72,72,0,0,1,32,400Zm122.538,72a88.034,88.034,0,0,0,37.1-64h17.046A48.109,48.109,0,0,0,248,447.321V456a8,8,0,0,0,16,0v-8.679a47.96,47.96,0,0,0,28.858-78.029l57.375-66.938,11.432,22.865A87.932,87.932,0,0,0,357.462,472ZM408,472a71.969,71.969,0,0,1-39.138-132.386l7.21,14.418a55.862,55.862,0,1,0,14.3-7.174l-7.218-14.437A72,72,0,1,1,408,472Zm7.155-75.578L397.63,361.371a40.114,40.114,0,1,1-14.3,7.178l17.515,35.029a8,8,0,1,0,14.31-7.156ZM448,24a48,48,0,1,0,48,48A48.054,48.054,0,0,0,448,24Zm0,80a32,32,0,1,1,32-32A32.036,32.036,0,0,1,448,104ZM56,136a39.968,39.968,0,0,0,21.832-6.478,56.092,56.092,0,0,0,52.336,0,40,40,0,1,0,24.486-73.435,56.026,56.026,0,0,0-101.308,0A40,40,0,0,0,56,136Zm0-64c.655,0,1.349.028,2.062.085a8.015,8.015,0,0,0,8.177-5.327,40.023,40.023,0,0,1,75.522,0,8.013,8.013,0,0,0,8.177,5.327c.713-.057,1.407-.085,2.062-.085a24,24,0,1,1-15.8,42.066l-.094-.085a8,8,0,0,0-9.825-.752l-.172.112a40.025,40.025,0,0,1-44.209,0c-.045-.031-.107-.072-.171-.112A8,8,0,0,0,71.88,114c-.017.016-.036.032-.054.05A24,24,0,1,1,56,72ZM296,56a56.1,56.1,0,0,0-50.654,32.087,40,40,0,1,0,24.486,73.435,56.092,56.092,0,0,0,52.336,0,40,40,0,1,0,24.486-73.435A56.1,56.1,0,0,0,296,56Zm72,72a24,24,0,0,1-39.8,18.066l-.094-.085a8,8,0,0,0-9.825-.752l-.172.112a40.025,40.025,0,0,1-44.209,0c-.045-.031-.107-.072-.171-.112a8,8,0,0,0-9.846.765c-.017.016-.036.032-.054.05A24,24,0,1,1,248,104c.655,0,1.349.028,2.062.085a8.011,8.011,0,0,0,8.177-5.327,40.023,40.023,0,0,1,75.522,0,8,8,0,0,0,8.177,5.327c.713-.057,1.407-.085,2.062-.085A24.028,24.028,0,0,1,368,128Z" style="fill:url(#linear-gradient)"/></svg>
