<?xml version="1.0"?>
<svg xmlns="http://www.w3.org/2000/svg" xmlns:xlink="http://www.w3.org/1999/xlink" id="Gradient" viewBox="0 0 512 512" width="512" height="512"><defs><linearGradient id="linear-gradient" x1="256" y1="496" x2="256" y2="16" gradientUnits="userSpaceOnUse"><stop offset="0" stop-color="#27c1e6"/><stop offset="0.5" stop-color="#c275e9"/><stop offset="1" stop-color="#f2515d"/></linearGradient></defs><path d="M455.926,125.572A71.751,71.751,0,0,0,422.4,74.689l-2.96-23.65A40.058,40.058,0,0,0,379.75,16H368a40.045,40.045,0,0,0-40,40V82.392A71.831,71.831,0,0,0,304,136v48H208V136a71.669,71.669,0,0,0-24-53.672V56a40.045,40.045,0,0,0-40-40H132.25A40.058,40.058,0,0,0,92.562,51.037L89.605,74.661a72.362,72.362,0,0,0-33.531,50.911L19.853,373.061A96,96,0,1,0,207.664,408h96.672a96,96,0,1,0,187.811-34.939ZM208,296h96v96H208Zm112-66.627c47.82-38.142,91.91-39.164,134.617-3.116l16.072,108.86A95.89,95.89,0,0,0,320,347ZM344,56a24.028,24.028,0,0,1,24-24h11.75a24.034,24.034,0,0,1,23.812,21.023l1.754,14.017A71.951,71.951,0,0,0,384.68,64H376a71.537,71.537,0,0,0-32,7.528Zm32,24h8.68a56.313,56.313,0,0,1,55.414,47.889L451.287,203.7c-20-13.442-40.723-20.07-61.79-19.69-22.724.387-46.044,8.911-69.5,25.373V136A56.063,56.063,0,0,1,376,80ZM304,200v80H208V200ZM132.25,32H144a24.028,24.028,0,0,1,24,24V71.508A72.26,72.26,0,0,0,136,64h-8.68a72.249,72.249,0,0,0-20.634,3.029l1.752-14.008A24.034,24.034,0,0,1,132.25,32ZM100.834,86.647A56.182,56.182,0,0,1,127.32,80H136a55.979,55.979,0,0,1,56,56v71.021C171.215,191.841,149.611,184.1,127.592,184h-.451c-21.86,0-44.276,7.539-66.833,22.446l11.6-78.556A56.27,56.27,0,0,1,100.834,86.647ZM57.047,228.536c47.936-37.716,92.137-38.07,134.953-1.08V347a95.89,95.89,0,0,0-150.689-11.88ZM112,480a80,80,0,1,1,80-80A80.091,80.091,0,0,1,112,480Zm288,0a80,80,0,1,1,80-80A80.091,80.091,0,0,1,400,480ZM112,336a64,64,0,1,0,64,64A64.072,64.072,0,0,0,112,336Zm0,112a48,48,0,1,1,48-48A48.053,48.053,0,0,1,112,448ZM400,336a64,64,0,1,0,64,64A64.072,64.072,0,0,0,400,336Zm0,112a48,48,0,1,1,48-48A48.053,48.053,0,0,1,400,448ZM256,312a32,32,0,1,0,32,32A32.036,32.036,0,0,0,256,312Zm0,48a16,16,0,1,1,16-16A16.019,16.019,0,0,1,256,360Z" style="fill:url(#linear-gradient)"/></svg>
