<svg id="Gradient" height="512" viewBox="0 0 512 512" width="512" xmlns="http://www.w3.org/2000/svg" xmlns:xlink="http://www.w3.org/1999/xlink"><linearGradient id="linear-gradient" gradientUnits="userSpaceOnUse" x1="255.994" x2="255.994" y1="496" y2="15.998"><stop offset="0" stop-color="#27c1e6"/><stop offset=".5" stop-color="#c275e9"/><stop offset="1" stop-color="#f2515d"/></linearGradient><path d="m257.348 28.483a41.521 41.521 0 0 0 -59.356 0c-7.533 7.485-11.682 17.023-11.682 26.857v39.35a76.7 76.7 0 0 1 -9.859 37.365l-.377.666a80.9 80.9 0 0 1 -5.58 8.47c-11.664 15.455-17.837 38.027-18.436 67.248-.144-.158-.295-.312-.438-.47a76.7 76.7 0 0 1 -18.098-34.969l-8.39-38.448c-2.1-9.608-8.183-18.042-17.139-23.748a41.528 41.528 0 0 0 -57.993 12.655c-5.765 8.919-7.785 19.122-5.688 28.73l8.39 38.448a76.706 76.706 0 0 1 -1.887 39.336 80.023 80.023 0 0 1 -3.652 9.466c-11.051 24-9.329 58.569 5.121 102.76 11.176 34.18 30.111 73.84 53.319 111.679a19.135 19.135 0 0 0 20.388 8.694l54.2-11.827a19.142 19.142 0 0 0 14.905-16.4c2.388-19.724 3.838-39.417 4.353-58.367.161 0 .319.025.48.025h16.327c4.144 66.863 59.852 119.997 127.744 119.997a127.964 127.964 0 0 0 70.1-235.045c3.712-24.524 1.95-44.869-5.256-60.521a81.509 81.509 0 0 1 -3.677-9.529c-.041-.13-.085-.26-.122-.4-.022-.082-.045-.163-.07-.244a76.715 76.715 0 0 1 -1.678-38.631l8.392-38.457c2.1-9.605.081-19.8-5.68-28.721a41.52 41.52 0 0 0 -58-12.663c-8.955 5.706-15.043 14.14-17.143 23.751l-6.966 31.938-1.425 6.506a76.652 76.652 0 0 1 -18.1 34.978c-1.6 1.772-3.292 3.479-5.046 5.105-3.078-13.157-7.917-24.18-14.471-32.868a80.706 80.706 0 0 1 -5.576-8.443l-.377-.667a76.718 76.718 0 0 1 -9.869-37.4v-39.349c-.006-9.834-4.155-19.372-11.688-26.857zm-4.297 67.517a92.2 92.2 0 0 0 6.286 32h-63.337a92.14 92.14 0 0 0 6.293-32zm-43.781-56.167a26.309 26.309 0 0 1 18.348-7.833h.1a26.559 26.559 0 0 1 18.348 7.833c4.488 4.459 6.96 9.966 6.96 15.507v24.66h-50.716v-24.66c0-5.54 2.472-11.048 6.96-15.507zm-140.68 148.676 49.6-10.824a92.094 92.094 0 0 0 12.961 29.925l-61.879 13.5a92.078 92.078 0 0 0 -.682-32.601zm-5.154-56.364a26.529 26.529 0 0 1 16.259-11.565l.1-.022a23.09 23.09 0 0 1 5.075-.55 27.4 27.4 0 0 1 14.53 4.292c5.334 3.4 8.923 8.253 10.1 13.666l5.259 24.1-49.559 10.807-5.258-24.095c-1.181-5.413.058-11.32 3.494-16.633zm115.776 300.28a3.13 3.13 0 0 1 -2.432 2.688l-54.2 11.827a3.149 3.149 0 0 1 -3.341-1.433c-22.57-36.8-40.947-75.254-51.747-108.281-12.969-39.665-14.973-71.165-5.794-91.095 1.155-2.509 2.2-5.079 3.128-7.671l77.6-16.933c1.927 1.967 3.943 3.869 6.038 5.669 16.646 14.294 27.947 43.765 32.681 85.227 3.943 34.525 3.255 77.14-1.933 120.002zm276.788-64.425a112 112 0 1 1 -112-112 112.127 112.127 0 0 1 112 112zm-68.594-218.5a92.219 92.219 0 0 0 -.678 32.6l-61.883-13.5a92.063 92.063 0 0 0 12.961-29.925zm-30.806-64.212a26.554 26.554 0 0 1 19.6-3.743l.1.022a26.54 26.54 0 0 1 16.263 11.572c3.431 5.31 4.669 11.214 3.487 16.627l-5.25 24.093-49.557-10.814 5.257-24.087c1.179-5.416 4.769-10.27 10.1-13.67zm-49.071 102.9c2.089-1.794 4.107-3.7 6.04-5.675l77.6 16.934c.928 2.571 1.968 5.137 3.129 7.669 5.317 11.548 6.905 26.78 4.779 45.356a127.92 127.92 0 0 0 -97.844-5.117c2.316-20.173 2.715-38.312 1.179-54.1a53.014 53.014 0 0 1 5.121-5.067zm-21.378 3.451c2.089 17.684 1.409 38.948-2.008 63.246a128.185 128.185 0 0 0 -67.886 105.115h-16.327c-.091 0-.18-.021-.27-.029a444.017 444.017 0 0 0 -2.617-49.362c-4.4-38.5-14.051-67.236-28.748-85.7-1.617-33.846 3.414-58.762 14.977-74.084 1.657-2.2 3.216-4.485 4.68-6.82h79.428c1.453 2.313 3.017 4.6 4.693 6.828 7.288 9.655 12.027 23.385 14.082 40.806zm3.879 139.882a23.822 23.822 0 0 0 13.919 4.49 24.274 24.274 0 0 0 3.973-.328 24.03 24.03 0 0 0 19.757-27.6 24 24 0 1 0 -37.649 23.439zm7.464-24.174a7.947 7.947 0 0 1 5.2-3.237 8.129 8.129 0 0 1 1.324-.11 8.006 8.006 0 1 1 -6.523 3.347zm56.535 8.171a23.822 23.822 0 0 0 13.919 4.49 24.283 24.283 0 0 0 3.973-.328 24.028 24.028 0 0 0 19.755-27.6 24 24 0 1 0 -37.647 23.438zm7.464-24.172a7.946 7.946 0 0 1 5.2-3.236 8.141 8.141 0 0 1 1.325-.11 8 8 0 1 1 -6.523 3.346zm14.175 64.926a24.06 24.06 0 0 0 -43.24-9.887 23.529 23.529 0 0 0 -4.11 17.7 24 24 0 0 0 23.671 19.915 24.264 24.264 0 0 0 3.916-.32 23.86 23.86 0 0 0 15.659-9.707 23.532 23.532 0 0 0 4.108-17.7zm-17.119 8.388a8.062 8.062 0 0 1 -14.45-3.218 7.635 7.635 0 0 1 1.339-5.745 7.966 7.966 0 0 1 5.234-3.23 8.246 8.246 0 0 1 1.33-.109 7.954 7.954 0 0 1 7.886 6.558 7.637 7.637 0 0 1 -1.335 5.744zm-6.549 91.34a8 8 0 0 1 -8 8 96.108 96.108 0 0 1 -96-96 8 8 0 0 1 16 0 80.091 80.091 0 0 0 80 80 8 8 0 0 1 8 8z" fill="url(#linear-gradient)"/></svg>