<?xml version="1.0"?>
<svg xmlns="http://www.w3.org/2000/svg" xmlns:xlink="http://www.w3.org/1999/xlink" id="Gradient" viewBox="0 0 512 512" width="512" height="512"><defs><linearGradient id="linear-gradient" x1="256" y1="496" x2="256" y2="16" gradientUnits="userSpaceOnUse"><stop offset="0" stop-color="#27c1e6"/><stop offset="0.5" stop-color="#c275e9"/><stop offset="1" stop-color="#f2515d"/></linearGradient></defs><path d="M264,72a8,8,0,0,1,8-8h16V48a8,8,0,0,1,16,0V64h16a8,8,0,0,1,0,16H304V96a8,8,0,0,1-16,0V80H272A8,8,0,0,1,264,72Zm64,80a8,8,0,0,0,0,16h16v16a8,8,0,0,0,16,0V168h16a8,8,0,0,0,0-16H360V136a8,8,0,0,0-16,0v16ZM432,296v64a8,8,0,0,1-8,8H352a8,8,0,0,1-8-8V296a8,8,0,0,1,8-8h72A8,8,0,0,1,432,296Zm-72,8v16h56V304Zm56,48V336H360v16ZM184,336v32a8,8,0,0,1-8,8H120a8,8,0,0,1-6.4-12.8l24-32A8,8,0,0,1,144,328h32A8,8,0,0,1,184,336Zm-16,8H148l-12,16h32ZM368,78.947c0-30.432,22.543-56.845,53.6-62.8a8,8,0,0,1,8.756,11.239,46.391,46.391,0,0,0-4.392,19.752c0,26.775,22.767,48.557,50.752,48.557a53.459,53.459,0,0,0,9.81-.916,8,8,0,0,1,8.657,11.382C484.226,128.538,460.505,143,434.752,143,397.944,143,368,114.266,368,78.947Zm16,0c0,26.5,22.768,48.053,50.752,48.053a52.286,52.286,0,0,0,37.267-15.467c-34.624-2.339-62.053-30.329-62.053-64.4a62.731,62.731,0,0,1,.893-10.584C394.713,44.742,384,60.914,384,78.947Zm86.225,186.824A87.463,87.463,0,0,1,496,328c0,32.8-23.344,110.986-24.337,114.3A8,8,0,0,1,464,448H407.2a40,40,0,1,1-78.39,0H199.2a40,40,0,1,1-78.39,0H64a8,8,0,0,1-8-8V384a8,8,0,0,1,1.753-5l21.6-27H24a8,8,0,0,1-6.656-12.438L72,257.578V256H48a8,8,0,0,1-7.155-11.578L83.056,160H64a8,8,0,0,1-6.91-12.031l56-96a8,8,0,0,1,13.82,0L142.667,78.98,177.09,19.969a8,8,0,0,1,13.82,0l56,96A8,8,0,0,1,240,128H220.944l42.211,84.422A8,8,0,0,1,256,224H230.948l10.667,16H408A87.463,87.463,0,0,1,470.225,265.771ZM151.928,94.857l30.982,53.112A8,8,0,0,1,176,160H156.944l40,80h25.441l-13.041-19.562A8,8,0,0,1,216,208h27.056l-42.211-84.422A8,8,0,0,1,208,112h18.072L184,39.877ZM60.944,240H179.056l-42.211-84.422A8,8,0,0,1,144,144h18.072L120,71.877,77.928,144H96a8,8,0,0,1,7.155,11.578Zm31.211,96,19.2-24H80a8,8,0,0,1-8-8V286.422L38.948,336ZM184,456a24,24,0,1,0-24,24A24.028,24.028,0,0,0,184,456Zm7.978-24H200V312H131.845L72,386.806V432h56v.028A39.957,39.957,0,0,1,191.978,432ZM392,456a24,24,0,1,0-24,24A24.028,24.028,0,0,0,392,456Zm74.729-56h-156.1A24.039,24.039,0,0,1,288,416H256a24.038,24.038,0,0,1-22.624-16H216v32H336v.028A39.957,39.957,0,0,1,399.978,432H458C459.916,425.371,463.238,413.588,466.729,400ZM248,392a8.009,8.009,0,0,0,8,8h32a8.009,8.009,0,0,0,8-8V336H248Zm48-96a8.009,8.009,0,0,0-8-8H256a8.009,8.009,0,0,0-8,8v24h48Zm184,32a71.994,71.994,0,0,0-72-72H88v40H208a8,8,0,0,1,8,8v80h16V296a24.027,24.027,0,0,1,24-24h32a24.027,24.027,0,0,1,24,24v88H470.693C475.658,363.123,480,341.114,480,328Z" style="fill:url(#linear-gradient)"/></svg>
