<svg id="Gradient" height="512" viewBox="0 0 512 512" width="512" xmlns="http://www.w3.org/2000/svg" xmlns:xlink="http://www.w3.org/1999/xlink"><linearGradient id="linear-gradient" gradientUnits="userSpaceOnUse" x1="256" x2="256" y1="496" y2="16"><stop offset="0" stop-color="#27c1e6"/><stop offset=".5" stop-color="#c275e9"/><stop offset="1" stop-color="#f2515d"/></linearGradient><path d="m192 56a8 8 0 1 1 8 8 8 8 0 0 1 -8-8zm48 8h56a8 8 0 0 0 0-16h-56a8 8 0 0 0 0 16zm32 384a24 24 0 1 1 -24-24 24.027 24.027 0 0 1 24 24zm-16 0a8 8 0 1 0 -8 8 8.009 8.009 0 0 0 8-8zm224-296v64a24.028 24.028 0 0 1 -24 24h-72v216a40.045 40.045 0 0 1 -40 40h-192a40.045 40.045 0 0 1 -40-40v-136h-56a24.028 24.028 0 0 1 -24-24v-64a24.028 24.028 0 0 1 24-24h56v-152a40.045 40.045 0 0 1 40-40h192a40.045 40.045 0 0 1 40 40v72h72a24.028 24.028 0 0 1 24 24zm-352-96v24h240v-24a24.028 24.028 0 0 0 -24-24h-192a24.028 24.028 0 0 0 -24 24zm-72 248h112a8 8 0 0 1 5.657 2.343l18.343 18.344v-12.687a8 8 0 0 1 8-8 8.009 8.009 0 0 0 8-8v-64a8.009 8.009 0 0 0 -8-8h-144a8.009 8.009 0 0 0 -8 8v64a8.009 8.009 0 0 0 8 8zm312 152v-40h-240v40a24.028 24.028 0 0 0 24 24h192a24.028 24.028 0 0 0 24-24zm0-216h-20.686l-29.657 29.657a8 8 0 0 1 -13.657-5.657v-25.371a24.042 24.042 0 0 1 -16-22.629v-64a24.028 24.028 0 0 1 24-24h56v-32h-240v112h72a24.028 24.028 0 0 1 24 24v64a24.042 24.042 0 0 1 -16 22.629v25.371a8 8 0 0 1 -13.657 5.657l-29.657-29.657h-36.686v80h240zm96-88a8.009 8.009 0 0 0 -8-8h-144a8.009 8.009 0 0 0 -8 8v64a8.009 8.009 0 0 0 8 8 8 8 0 0 1 8 8v12.687l18.343-18.344a8 8 0 0 1 5.657-2.343h112a8.009 8.009 0 0 0 8-8zm-24 8h-112a8 8 0 0 0 0 16h112a8 8 0 0 0 0-16zm-40 32h-72a8 8 0 0 0 0 16h72a8 8 0 0 0 0-16zm-208 56a8 8 0 0 0 -8-8h-112a8 8 0 0 0 0 16h112a8 8 0 0 0 8-8zm0 32a8 8 0 0 0 -8-8h-72a8 8 0 0 0 0 16h72a8 8 0 0 0 8-8z" fill="url(#linear-gradient)"/></svg>