<?xml version="1.0"?>
<svg xmlns="http://www.w3.org/2000/svg" xmlns:xlink="http://www.w3.org/1999/xlink" id="Gradient" viewBox="0 0 512 512" width="512" height="512"><defs><linearGradient id="linear-gradient" x1="256" y1="464" x2="256" y2="48" gradientUnits="userSpaceOnUse"><stop offset="0" stop-color="#27c1e6"/><stop offset="0.5" stop-color="#c275e9"/><stop offset="1" stop-color="#f2515d"/></linearGradient></defs><path d="M152,184a88,88,0,1,0,88,88A88.1,88.1,0,0,0,152,184Zm0,160a72,72,0,1,1,72-72A72.081,72.081,0,0,1,152,344Zm8-112v40a7.971,7.971,0,0,1-2.343,5.656h0l-28.284,28.284a8,8,0,0,1-11.314-11.314L144,268.686V232a8,8,0,0,1,16,0Zm192,0v40a8,8,0,0,1-8,8H304a8,8,0,0,1,0-16h32V232a8,8,0,0,1,16,0ZM495.983,360a7.979,7.979,0,0,0-1.583-4.8l-22.576-30.1L465.084,224H472a8,8,0,0,0,8-8V184a8,8,0,0,0-8-8h-5.561l5.521-55.2A8,8,0,0,0,464,112H440V88h16a8,8,0,0,0,0-16H440V56a8,8,0,0,0-16,0V72H408a8,8,0,0,0,0,16h16v24H400a8,8,0,0,0-7.96,8.8l2.321,23.2H376V120a8,8,0,0,0-8-8H320a8,8,0,0,0-8,8v24H192V120a8,8,0,0,0-8-8H136a8,8,0,0,0-8,8v24H72a40.045,40.045,0,0,0-40,40V384H24a8,8,0,0,0-8,8v64a8,8,0,0,0,8,8H488a8,8,0,0,0,8-8V360ZM392,224h6.916l-6.74,101.1-.869,1.158A71.995,71.995,0,1,1,384,212.141V216A8,8,0,0,0,392,224Zm72-32v16H400V192ZM384,368h96v16H384Zm8-16,11.1-14.8c.429-.389.842-.8,1.264-1.2H460l12,16Zm63.449-32h-46.9l6.4-96h34.1Zm-.289-192-4.8,48H413.64l-4.8-48ZM328,128h32v16H328Zm-184,0h32v16H144ZM32,400H160v48H32Zm304,48H176V400H336ZM48,384V184a24.027,24.027,0,0,1,24-24H395.961l1.6,16H392a8,8,0,0,0-8,8v9.6A88.007,88.007,0,1,0,344,360a88.31,88.31,0,0,0,24.852-3.558,7.973,7.973,0,0,0-.835,3.558H368v24Zm432,64H352V400H480Z" style="fill:url(#linear-gradient)"/></svg>
