<?xml version="1.0"?>
<svg xmlns="http://www.w3.org/2000/svg" xmlns:xlink="http://www.w3.org/1999/xlink" id="Gradient" viewBox="0 0 512 512" width="512" height="512"><defs><linearGradient id="linear-gradient" x1="256" y1="472" x2="256" y2="40" gradientUnits="userSpaceOnUse"><stop offset="0" stop-color="#27c1e6"/><stop offset="0.5" stop-color="#c275e9"/><stop offset="1" stop-color="#f2515d"/></linearGradient></defs><path d="M123.716,209.775a24,24,0,0,0-33.942,33.941l45.255,45.254h0a24,24,0,0,0,33.942-33.942Zm33.94,67.882a8,8,0,0,1-11.312,0h0L101.088,232.4A8,8,0,1,1,112.4,221.089l45.256,45.255a8,8,0,0,1,0,11.313ZM144,72a32,32,0,1,0,32-32A32.036,32.036,0,0,0,144,72Zm48,0a16,16,0,1,1-16-16A16.019,16.019,0,0,1,192,72Zm176,8a24,24,0,1,0,24-24A24.028,24.028,0,0,0,368,80Zm32,0a8,8,0,1,1-8-8A8.009,8.009,0,0,1,400,80Zm56,56a32,32,0,1,0,32,32A32.036,32.036,0,0,0,456,136Zm0,48a16,16,0,1,1,16-16A16.019,16.019,0,0,1,456,184Zm32,192h-8V336a24.028,24.028,0,0,0-24-24H392V248h8a8,8,0,0,0,8-8V192a8,8,0,0,0-8-8h-.675A48,48,0,0,0,367.91,130.7c.06-.9.09-1.8.09-2.695a40.005,40.005,0,0,0-77.1-14.978,72.024,72.024,0,0,0-94.944,23.221A32.02,32.02,0,0,0,160,168a31.8,31.8,0,0,0,4.305,16H160a8,8,0,0,0-8,8v4.686l-21.656-21.657a23.869,23.869,0,0,0-10.344-6.1V128a8,8,0,0,0-8-8H64a8,8,0,0,0-8,8v42.573a23.9,23.9,0,0,0-11.451,12.514L16.572,253.029A8,8,0,0,0,16,256V432a40.045,40.045,0,0,0,40,40H168a39.962,39.962,0,0,0,31.978-16H288v8a8,8,0,0,0,8,8h24a8,8,0,0,0,5.657-2.343L336,459.313l10.343,10.344A8,8,0,0,0,352,472H472a8,8,0,0,0,8-8V424h8a8,8,0,0,0,8-8V384A8,8,0,0,0,488,376Zm-24-40v40H448V352a8,8,0,0,0-8-8H328a8,8,0,0,0-8,8v24H304V336a8.009,8.009,0,0,1,8-8H456A8.009,8.009,0,0,1,464,336Zm-32,40H336V360h96Zm-56-64h-5.671L312,274.881V248h64Zm-91.7-54.749a8,8,0,1,0-8.59,13.5L290.242,280H264V248h32v16.7ZM176,168a16.019,16.019,0,0,1,16-16,15.828,15.828,0,0,1,5.2.868,8,8,0,0,0,9.638-3.716A56.049,56.049,0,0,1,256,120a55.363,55.363,0,0,1,35.047,12.315,8,8,0,0,0,13-5.763A24,24,0,0,1,352,128a24.427,24.427,0,0,1-.874,6.47,8,8,0,0,0,6.357,10A32.016,32.016,0,0,1,382.988,184H195.139a8,8,0,0,0-1.878-.057c-.409.038-.834.057-1.261.057A16.019,16.019,0,0,1,176,168Zm-8,32H392v32H187.314L168,212.686Zm-64-64v32H72V136ZM68.253,264,144,354.9V408H32V264ZM192,432a24.028,24.028,0,0,1-24,24H56a24.028,24.028,0,0,1-24-24v-8H152a8,8,0,0,0,8-8V352a8,8,0,0,0-1.854-5.121l-80-96A8,8,0,0,0,72,248H35.816L59.4,189.028A7.963,7.963,0,0,1,66.833,184h46.54a7.94,7.94,0,0,1,5.656,2.344l65.941,65.94A23.844,23.844,0,0,1,192,269.255Zm15.195,8a40.028,40.028,0,0,0,.805-8V269.255A39.734,39.734,0,0,0,201.889,248H248v40a8,8,0,0,0,8,8h48a7.978,7.978,0,0,0,6.378-3.186L340.528,312H312a24.028,24.028,0,0,0-24,24v40h-8a8,8,0,0,0-8,8v32a8,8,0,0,0,8,8h8v16ZM464,456H448v-8a8,8,0,0,0-16,0v8H416v-8a8,8,0,0,0-16,0v8H384v-8a8,8,0,0,0-16,0v8H355.313l-13.656-13.657a8,8,0,0,0-11.314,0L316.687,456H304V424H464Zm16-48H288V392H480Z" style="fill:url(#linear-gradient)"/></svg>
