<svg id="Gradient" height="512" viewBox="0 0 512 512" width="512" xmlns="http://www.w3.org/2000/svg" xmlns:xlink="http://www.w3.org/1999/xlink"><linearGradient id="linear-gradient" gradientUnits="userSpaceOnUse" x1="256" x2="256" y1="496" y2="16"><stop offset="0" stop-color="#27c1e6"/><stop offset=".5" stop-color="#c275e9"/><stop offset="1" stop-color="#f2515d"/></linearGradient><path d="m464 496a24.027 24.027 0 0 0 24-24v-32a24.027 24.027 0 0 0 -24-24h-64a24.027 24.027 0 0 0 -24 24v32a24.027 24.027 0 0 0 24 24zm0-64a8.009 8.009 0 0 1 8 8v8h-32v-16zm-64 0h24v16h-32v-8a8.009 8.009 0 0 1 8-8zm-8 40v-8h80v8a8.009 8.009 0 0 1 -8 8h-64a8.009 8.009 0 0 1 -8-8zm80-456h-432a24.028 24.028 0 0 0 -24 24v320a24.028 24.028 0 0 0 24 24h174.241l-12.8 64h-25.441a8 8 0 0 0 -8 8v32a8 8 0 0 0 8 8h160a8 8 0 0 0 8-8v-32a8 8 0 0 0 -8-8h-25.441l-12.8-64h174.241a24.028 24.028 0 0 0 24-24v-320a24.028 24.028 0 0 0 -24-24zm-432 16h432a8.009 8.009 0 0 1 8 8v264h-448v-264a8.009 8.009 0 0 1 8-8zm288 448h-144v-16h144zm-33.759-32h-76.482l12.8-64h50.882zm177.759-80h-432a8.009 8.009 0 0 1 -8-8v-40h448v40a8.009 8.009 0 0 1 -8 8zm-416-80h400a8 8 0 0 0 8-8v-224a8 8 0 0 0 -8-8h-400a8 8 0 0 0 -8 8v224a8 8 0 0 0 8 8zm8-224h384v208h-384zm224 280a8 8 0 0 1 -8 8h-48a8 8 0 0 1 0-16h48a8 8 0 0 1 8 8z" fill="url(#linear-gradient)"/></svg>