<?xml version="1.0"?>
<svg xmlns="http://www.w3.org/2000/svg" xmlns:xlink="http://www.w3.org/1999/xlink" id="Gradient" viewBox="0 0 512 512" width="512" height="512"><defs><linearGradient id="linear-gradient" x1="256" y1="496" x2="256" y2="16" gradientUnits="userSpaceOnUse"><stop offset="0" stop-color="#27c1e6"/><stop offset="0.5" stop-color="#c275e9"/><stop offset="1" stop-color="#f2515d"/></linearGradient></defs><path d="M472,192H432V174.624a23.994,23.994,0,0,0-.254-45.334A88.117,88.117,0,0,0,344,48H312V40a24.027,24.027,0,0,0-24-24H224a24.027,24.027,0,0,0-24,24v8H168a87.952,87.952,0,0,0-87.722,81.282A23.994,23.994,0,0,0,80,174.624V192H40a24.027,24.027,0,0,0-24,24v51.51a23.964,23.964,0,0,0,18.18,23.281L80,302.246V376a40.045,40.045,0,0,0,40,40H392a40.045,40.045,0,0,0,40-40V302.246l45.82-11.455A23.964,23.964,0,0,0,496,267.51V216A24.027,24.027,0,0,0,472,192ZM216,40a8.009,8.009,0,0,1,8-8h64a8.009,8.009,0,0,1,8,8v8H216ZM117.085,85.089A71.562,71.562,0,0,1,168,64H344a72.1,72.1,0,0,1,71.545,64H96.453A71.484,71.484,0,0,1,117.085,85.089ZM88,144H424a8,8,0,0,1,0,16H88a8,8,0,0,1,0-16Zm254.62,57.367A32,32,0,0,0,288,224.013a15.77,15.77,0,0,1-11.392,15.357,16.1,16.1,0,0,1-14.311-2.649A15.9,15.9,0,0,1,256,224V176H384V304a15.92,15.92,0,0,1-4.681,11.307,16.238,16.238,0,0,1-16.705,3.831A15.771,15.771,0,0,1,352,304.067V224A31.835,31.835,0,0,0,342.62,201.367Zm-304.56,73.9A7.988,7.988,0,0,1,32,267.51V216a8.009,8.009,0,0,1,8-8H80v77.754ZM392,400H120a24.028,24.028,0,0,1-24-24V176H240v48a31.78,31.78,0,0,0,12.578,25.43,32.186,32.186,0,0,0,28.222,5.382A31.8,31.8,0,0,0,304,224.006,16,16,0,1,1,336,224v80.067a31.51,31.51,0,0,0,21.761,30.317,33.438,33.438,0,0,0,10.145,1.586A31.951,31.951,0,0,0,400,304V176h16V376A24.028,24.028,0,0,1,392,400Zm88-132.49a7.988,7.988,0,0,1-6.061,7.759L432,285.754V208h40a8.009,8.009,0,0,1,8,8ZM112,312V248a8,8,0,0,1,16,0v64a8,8,0,0,1-16,0ZM424,496a8,8,0,0,0,0-16H383.373c-1.857-16.922-7.545-34.636-27.156-46.8a8,8,0,0,0-7.188-.629c-14.9,5.961-24.336,21.907-28.1,47.428H287.373c-1.857-16.922-7.545-34.636-27.157-46.8a8,8,0,0,0-7.187-.629c-14.9,5.961-24.337,21.907-28.1,47.428H191.373c-1.858-16.921-7.545-34.636-27.157-46.8a8,8,0,0,0-7.187-.629c-14.9,5.961-24.337,21.907-28.1,47.428H88a8,8,0,0,0,0,16Zm-72.524-46.694c7.863,5.889,13.534,14.271,15.746,30.694h-30.1C339.67,464.419,344.475,454.12,351.476,449.306Zm-96,0c7.864,5.888,13.535,14.271,15.747,30.694h-30.1C243.669,464.419,248.474,454.12,255.475,449.306Zm-96,0c7.864,5.889,13.535,14.271,15.747,30.694H145.117C147.669,464.419,152.474,454.12,159.475,449.306ZM160,376a8,8,0,0,1-8,8H136a24.027,24.027,0,0,1-24-24V344a8,8,0,0,1,16,0v16a8.009,8.009,0,0,0,8,8h16A8,8,0,0,1,160,376Z" style="fill:url(#linear-gradient)"/></svg>
