<svg id="Gradient" height="512" viewBox="0 0 512 512" width="512" xmlns="http://www.w3.org/2000/svg" xmlns:xlink="http://www.w3.org/1999/xlink"><linearGradient id="linear-gradient" gradientUnits="userSpaceOnUse" x1="256" x2="256" y1="496" y2="16"><stop offset="0" stop-color="#27c1e6"/><stop offset=".5" stop-color="#c275e9"/><stop offset="1" stop-color="#f2515d"/></linearGradient><path d="m32 16a8 8 0 0 0 -8 8v464a8 8 0 0 0 8 8h352a8 8 0 0 0 8-8v-416h-.019a7.982 7.982 0 0 0 -2.324-5.657l-48-48a7.981 7.981 0 0 0 -5.657-2.323v-.02zm312 27.313 20.687 20.687h-20.687zm32 36.687v400h-336v-448h288v40a8 8 0 0 0 8 8zm-320 24v240a8 8 0 0 0 8 8h288a8 8 0 0 0 8-8v-240a8 8 0 0 0 -8-8h-288a8 8 0 0 0 -8 8zm192 56v32h-32v-32zm-32-16v-32h32v32zm0 64h32v32h-32zm0 96h32v32h-32zm0-16v-32h32v32zm48-32h32v32h-32zm48 0h32v32h-32zm-48-16v-32h80v32zm48-48v-32h32v32zm-16 0h-32v-32h32zm-96 0h-32v-32h32zm-48 0h-32v-32h32zm-48 0h-32v-32h32zm-32 16h128v128h-128zm192 128v-32h80v32zm80-192h-80v-32h80zm-144-32v32h-128v-32zm-64 280a8 8 0 0 1 -8 8h-64a8 8 0 0 1 0-16h64a8 8 0 0 1 8 8zm112 0a8 8 0 0 1 -8 8h-64a8 8 0 0 1 0-16h64a8 8 0 0 1 8 8zm112 0a8 8 0 0 1 -8 8h-64a8 8 0 0 1 0-16h64a8 8 0 0 1 8 8zm-224 32a8 8 0 0 1 -8 8h-64a8 8 0 0 1 0-16h64a8 8 0 0 1 8 8zm112 0a8 8 0 0 1 -8 8h-64a8 8 0 0 1 0-16h64a8 8 0 0 1 8 8zm112 0a8 8 0 0 1 -8 8h-64a8 8 0 0 1 0-16h64a8 8 0 0 1 8 8zm-224 32a8 8 0 0 1 -8 8h-64a8 8 0 0 1 0-16h64a8 8 0 0 1 8 8zm112 0a8 8 0 0 1 -8 8h-64a8 8 0 0 1 0-16h64a8 8 0 0 1 8 8zm112 0a8 8 0 0 1 -8 8h-64a8 8 0 0 1 0-16h64a8 8 0 0 1 8 8zm-224-400a8 8 0 0 1 8-8h128a8 8 0 0 1 0 16h-128a8 8 0 0 1 -8-8zm328 440a24.028 24.028 0 0 0 24-24v-264a7.992 7.992 0 0 0 -1.052-3.969l-32-56a8 8 0 0 0 -13.892 0l-32 56a7.992 7.992 0 0 0 -1.056 3.969v264a24.028 24.028 0 0 0 24 24zm8-88h-48v-192h48zm-48 16h48v16h-48zm24-255.875 18.215 31.875h-36.43zm-24 303.875v-16h48v16a8.009 8.009 0 0 1 -8 8h-32a8.009 8.009 0 0 1 -8-8zm16-88v-144a8 8 0 0 1 16 0v144a8 8 0 0 1 -16 0z" fill="url(#linear-gradient)"/></svg>