<?xml version="1.0"?>
<svg xmlns="http://www.w3.org/2000/svg" xmlns:xlink="http://www.w3.org/1999/xlink" id="Gradient" viewBox="0 0 512 512" width="512" height="512"><defs><linearGradient id="linear-gradient" x1="256" y1="496" x2="256" y2="16" gradientUnits="userSpaceOnUse"><stop offset="0" stop-color="#27c1e6"/><stop offset="0.5" stop-color="#c275e9"/><stop offset="1" stop-color="#f2515d"/></linearGradient></defs><path d="M488,16H440a8,8,0,0,0-8,8V192H416V168a40.045,40.045,0,0,0-40-40H56a40.045,40.045,0,0,0-40,40V296a40.045,40.045,0,0,0,40,40H376a40.045,40.045,0,0,0,40-40v-8h16v88a56.063,56.063,0,0,1-56,56H248V416a8,8,0,0,0,8-8V360a8,8,0,0,0-8-8H184a8,8,0,0,0-8,8v48a8,8,0,0,0,8,8v16H128a32,32,0,0,0,0,64H392A104.118,104.118,0,0,0,496,392V24A8,8,0,0,0,488,16ZM198.865,320c.443-.592.878-1.192,1.291-1.812l9.187-13.781a8,8,0,0,1,13.314,0l9.187,13.781c.413.62.848,1.22,1.291,1.812ZM400,296a24.027,24.027,0,0,1-24,24H265.126a23.951,23.951,0,0,1-19.969-10.687l-9.188-13.781a24,24,0,0,0-39.938,0l-9.188,13.781A23.951,23.951,0,0,1,166.874,320H56a24.027,24.027,0,0,1-24-24V168a24.027,24.027,0,0,1,24-24H376a24.027,24.027,0,0,1,24,24ZM192,368h48v32H192Zm8,48h32v16H200Zm72,64H128a16,16,0,0,1,0-32H272ZM448,32h32V96H448Zm0,208h32v32H448Zm0-16V112h32V224Zm-32,48V208h16v64ZM392,480H288V448h88a72.081,72.081,0,0,0,72-72V288h32V392A88.1,88.1,0,0,1,392,480ZM344,160H88a40.045,40.045,0,0,0-40,40v64a40.045,40.045,0,0,0,40,40h48a72.346,72.346,0,0,0,57.6-28.8l3.2-4.266a24,24,0,0,1,38.4,0l3.2,4.267A72.343,72.343,0,0,0,296,304h48a40.045,40.045,0,0,0,40-40V200A40.045,40.045,0,0,0,344,160Zm24,104a24.027,24.027,0,0,1-24,24H296a56.27,56.27,0,0,1-44.8-22.4l-3.2-4.267a40,40,0,0,0-64,0l-3.2,4.267A56.268,56.268,0,0,1,136,288H88a24.027,24.027,0,0,1-24-24V200a24.027,24.027,0,0,1,24-24H344a24.027,24.027,0,0,1,24,24Z" style="fill:url(#linear-gradient)"/></svg>
