<?xml version="1.0"?>
<svg xmlns="http://www.w3.org/2000/svg" xmlns:xlink="http://www.w3.org/1999/xlink" id="Gradient" viewBox="0 0 512 512" width="512" height="512"><defs><linearGradient id="linear-gradient" x1="256" y1="496" x2="256" y2="16" gradientUnits="userSpaceOnUse"><stop offset="0" stop-color="#27c1e6"/><stop offset="0.5" stop-color="#c275e9"/><stop offset="1" stop-color="#f2515d"/></linearGradient></defs><path d="M464,496a24.028,24.028,0,0,0,24-24V440a24.028,24.028,0,0,0-24-24H400a24.028,24.028,0,0,0-24,24v32a24.028,24.028,0,0,0,24,24Zm0-64a8.009,8.009,0,0,1,8,8v8H440V432Zm-64,0h24v16H392v-8A8.009,8.009,0,0,1,400,432Zm-8,40v-8h80v8a8.009,8.009,0,0,1-8,8H400A8.009,8.009,0,0,1,392,472ZM16,360a24.028,24.028,0,0,0,24,24H214.241l-12.8,64H176a8,8,0,0,0-8,8v32a8,8,0,0,0,8,8H336a8,8,0,0,0,8-8V456a8,8,0,0,0-8-8H310.559l-12.8-64H472a24.028,24.028,0,0,0,24-24V40a24.028,24.028,0,0,0-24-24H40A24.028,24.028,0,0,0,16,40ZM328,480H184V464H328Zm-33.759-32H217.759l12.8-64h50.882ZM472,368H40a8.009,8.009,0,0,1-8-8V320H480v40A8.009,8.009,0,0,1,472,368ZM40,32H472a8.009,8.009,0,0,1,8,8V304H32V40A8.009,8.009,0,0,1,40,32ZM56,288H456a8,8,0,0,0,8-8V56a8,8,0,0,0-8-8H56a8,8,0,0,0-8,8V280A8,8,0,0,0,56,288ZM64,64H448V272H64ZM288,344a8,8,0,0,1-8,8H232a8,8,0,0,1,0-16h48A8,8,0,0,1,288,344ZM424,112h-9.376a24,24,0,0,0-45.248,0H312a8,8,0,0,0,0,16h57.376a24,24,0,0,0,45.248,0H424a8,8,0,0,0,0-16Zm-32,16a8,8,0,1,1,8-8A8.009,8.009,0,0,1,392,128Zm32,32H366.624a24,24,0,0,0-45.248,0H312a8,8,0,0,0,0,16h9.376a24,24,0,0,0,45.248,0H424a8,8,0,0,0,0-16Zm-80,16a8,8,0,1,1,8-8A8.009,8.009,0,0,1,344,176Zm80,32h-9.376a24,24,0,0,0-45.248,0H312a8,8,0,0,0,0,16h57.376a24,24,0,0,0,45.248,0H424a8,8,0,0,0,0-16Zm-32,16a8,8,0,1,1,8-8A8.009,8.009,0,0,1,392,224ZM280,96H88a8,8,0,0,0-8,8V232a8,8,0,0,0,8,8H280a8,8,0,0,0,8-8V104A8,8,0,0,0,280,96Zm-8,16v76.686l-26.343-26.343a8,8,0,0,0-10.095-1l-45.055,30.037-28.567-7.142a7.994,7.994,0,0,0-5.825.768L96,218.4V112ZM118.873,224l42.251-23.473,28.936,7.234a8.006,8.006,0,0,0,6.378-1.1l42.542-28.362L272,211.314V224ZM136,176a24,24,0,1,0-24-24A24.028,24.028,0,0,0,136,176Zm0-32a8,8,0,1,1-8,8A8.009,8.009,0,0,1,136,144Z" style="fill:url(#linear-gradient)"/></svg>
