<?xml version="1.0"?>
<svg xmlns="http://www.w3.org/2000/svg" xmlns:xlink="http://www.w3.org/1999/xlink" id="Gradient" viewBox="0 0 512 512" width="512" height="512"><defs><linearGradient id="linear-gradient" x1="256" y1="496" x2="256" y2="16" gradientUnits="userSpaceOnUse"><stop offset="0" stop-color="#27c1e6"/><stop offset="0.5" stop-color="#c275e9"/><stop offset="1" stop-color="#f2515d"/></linearGradient></defs><path d="M464,416H400a24.028,24.028,0,0,0-24,24v32a24.028,24.028,0,0,0,24,24h64a24.028,24.028,0,0,0,24-24V440A24.028,24.028,0,0,0,464,416Zm0,16a8.009,8.009,0,0,1,8,8v8H440V432Zm-64,0h24v16H392v-8A8.009,8.009,0,0,1,400,432Zm72,40a8.009,8.009,0,0,1-8,8H400a8.009,8.009,0,0,1-8-8v-8h80Zm0-456H40A24.028,24.028,0,0,0,16,40V360a24.028,24.028,0,0,0,24,24H214.241l-12.8,64H176a8,8,0,0,0-8,8v32a8,8,0,0,0,8,8H336a8,8,0,0,0,8-8V456a8,8,0,0,0-8-8H310.559l-12.8-64H472a24.028,24.028,0,0,0,24-24V40A24.028,24.028,0,0,0,472,16ZM40,32H472a8.009,8.009,0,0,1,8,8V304H32V40A8.009,8.009,0,0,1,40,32ZM328,480H184V464H328Zm-33.759-32H217.759l12.8-64h50.882ZM472,368H40a8.009,8.009,0,0,1-8-8V320H480v40A8.009,8.009,0,0,1,472,368ZM56,288H456a8,8,0,0,0,8-8V56a8,8,0,0,0-8-8H56a8,8,0,0,0-8,8V280A8,8,0,0,0,56,288ZM64,64H448V272H64ZM288,344a8,8,0,0,1-8,8H232a8,8,0,0,1,0-16h48A8,8,0,0,1,288,344ZM424,112h-9.376a24,24,0,0,0-45.248,0H312a8,8,0,0,0,0,16h57.376a24,24,0,0,0,45.248,0H424a8,8,0,0,0,0-16Zm-32,16a8,8,0,1,1,8-8A8.009,8.009,0,0,1,392,128Zm32,32H366.624a24,24,0,0,0-45.248,0H312a8,8,0,0,0,0,16h9.376a24,24,0,0,0,45.248,0H424a8,8,0,0,0,0-16Zm-80,16a8,8,0,1,1,8-8A8.009,8.009,0,0,1,344,176ZM264,96H88a8,8,0,0,0-8,8V232a8,8,0,0,0,8,8H264a8,8,0,0,0,8-8V104A8,8,0,0,0,264,96ZM112,112v16H96V112ZM96,160V144h16v16Zm16,16v16H96V176ZM96,208h16v16H96Zm128,16H128V112h96Zm32-96H240V112h16Zm-16,32V144h16v16Zm16,16v16H240V176Zm-16,48V208h16v16Zm-91.775-16.946a8,8,0,0,0,8.213-.4l48-32a8,8,0,0,0,0-13.312l-48-32A8,8,0,0,0,144,136v64A8,8,0,0,0,148.225,207.054ZM160,150.948,185.578,168,160,185.052ZM424,208h-9.376a24,24,0,0,0-45.248,0H312a8,8,0,0,0,0,16h57.376a24,24,0,0,0,45.248,0H424a8,8,0,0,0,0-16Zm-32,16a8,8,0,1,1,8-8A8.009,8.009,0,0,1,392,224Z" style="fill:url(#linear-gradient)"/></svg>
