<?xml version="1.0"?>
<svg xmlns="http://www.w3.org/2000/svg" xmlns:xlink="http://www.w3.org/1999/xlink" id="Gradient" viewBox="0 0 512 512" width="512" height="512"><defs><linearGradient id="linear-gradient" x1="255.999" y1="496" x2="255.999" y2="15.998" gradientUnits="userSpaceOnUse"><stop offset="0" stop-color="#27c1e6"/><stop offset="0.5" stop-color="#c275e9"/><stop offset="1" stop-color="#f2515d"/></linearGradient></defs><path d="M488,16a8,8,0,0,0-8,8V248a40,40,0,0,1-80,0V207.419a55.99,55.99,0,0,0-.332-110.881A87.991,87.991,0,0,0,224,103.786C178.38,142.834,152.209,184.4,144.12,230.621a8.011,8.011,0,0,0-.108,1.379H144v32H128a24,24,0,0,0,0,48h16v17.31A73.335,73.335,0,0,0,170.462,385.8a24.393,24.393,0,0,1,3.43,34.025A63.671,63.671,0,0,0,160,459.44V488a8,8,0,0,0,8,8h48a8,8,0,0,0,7.155-4.422L232,473.889l8.845,17.689A8,8,0,0,0,248,496h48a8,8,0,0,0,8-8V459.44a63.394,63.394,0,0,0-13.891-39.615,24.421,24.421,0,0,1,3.432-34.029A73.34,73.34,0,0,0,316.87,350.51l30.708-15.355A8,8,0,0,0,352,328V232a8,8,0,0,0-8-8H318.876c-8.286-49.65-33.736-91.01-77.66-126.241a8.03,8.03,0,0,0-.883-.59,72,72,0,0,1,143.291-.541A56,56,0,0,0,384,207.419V248a56,56,0,0,0,112,0V24A8,8,0,0,0,488,16ZM128,296a8,8,0,1,1,0-16h16v16Zm155.3,77.5a40.422,40.422,0,0,0-5.693,56.312A47.407,47.407,0,0,1,288,459.44V480H252.944l-13.789-27.578a8,8,0,0,0-14.31,0L211.056,480H176V459.44a47.6,47.6,0,0,1,10.389-29.624A40.422,40.422,0,0,0,180.7,373.5,57.373,57.373,0,0,1,160,329.31V240H304v89.31A57.37,57.37,0,0,1,283.3,373.5ZM336,323.056l-16.049,8.024c.014-.59.049-1.178.049-1.77V240h16ZM302.647,224H161.814c9.353-39.332,33.8-75.327,74.417-109.625C273.093,145.453,294.9,181.442,302.647,224ZM352,152a40.028,40.028,0,0,1,.805-8H431.2a40.154,40.154,0,0,1,0,16h-78.39A40.028,40.028,0,0,1,352,152Zm40-40a39.962,39.962,0,0,1,31.978,16H360.022A39.962,39.962,0,0,1,392,112Zm-31.978,64h63.956a39.956,39.956,0,0,1-63.956,0ZM216,184a24,24,0,1,0,24-24A24.027,24.027,0,0,0,216,184Zm24-8a8,8,0,1,1-8,8A8.009,8.009,0,0,1,240,176ZM121.053,16.078l-1.734.144A33.786,33.786,0,0,0,87.962,47.576l-.145,1.735v0c-.921,11.128,6.294,21.816,17.19,25.524l52.017,20.847a8,8,0,0,0,10.4-10.4L146.579,33.267C142.872,22.371,132.175,15.154,121.053,16.078ZM110.742,59.9c-.158-.064-.319-.122-.481-.176-3.957-1.3-6.811-5.288-6.5-9.086l.144-1.739a17.818,17.818,0,0,1,16.735-16.733l1.734-.144c3.792-.32,7.791,2.539,9.089,6.5.054.162.112.323.176.482l13.976,34.874ZM16.078,222.945l.144,1.737A33.791,33.791,0,0,0,47.58,256.039l1.733.143q.963.079,1.917.079a25.359,25.359,0,0,0,23.609-17.268l20.847-52.017a8,8,0,0,0-10.4-10.4L33.268,197.421C22.371,201.128,15.155,211.818,16.078,222.945Zm22.443-10.41q.244-.079.483-.176l34.873-13.976L59.9,233.257c-.063.159-.123.321-.175.483-1.3,3.958-5.3,6.8-9.089,6.5h0l-1.734-.144a17.82,17.82,0,0,1-16.733-16.732l-.144-1.737C31.708,217.826,34.562,213.833,38.521,212.535ZM288,280a23.984,23.984,0,0,1-40,17.869,23.943,23.943,0,0,1-32,0A23.984,23.984,0,0,1,176,280a8,8,0,0,1,16,0,8,8,0,0,0,16,0,8,8,0,0,1,16,0,8,8,0,0,0,16,0,8,8,0,0,1,16,0,8,8,0,0,0,16,0,8,8,0,0,1,16,0Zm0,48a23.984,23.984,0,0,1-40,17.869,23.943,23.943,0,0,1-32,0A23.984,23.984,0,0,1,176,328a8,8,0,0,1,16,0,8,8,0,0,0,16,0,8,8,0,0,1,16,0,8,8,0,0,0,16,0,8,8,0,0,1,16,0,8,8,0,0,0,16,0,8,8,0,0,1,16,0Z" style="fill:url(#linear-gradient)"/></svg>
