<?xml version="1.0"?>
<svg xmlns="http://www.w3.org/2000/svg" xmlns:xlink="http://www.w3.org/1999/xlink" id="Gradient" viewBox="0 0 512 512" width="512" height="512"><defs><linearGradient id="linear-gradient" x1="256" y1="496" x2="256" y2="15.999" gradientUnits="userSpaceOnUse"><stop offset="0" stop-color="#27c1e6"/><stop offset="0.5" stop-color="#c275e9"/><stop offset="1" stop-color="#f2515d"/></linearGradient></defs><path d="M205.657,186.343l-48-48a8,8,0,0,0-11.314,0l-48,48A8,8,0,0,0,96,192V296.805A40.068,40.068,0,0,0,64,336V456a39.742,39.742,0,0,0,11.713,28.287,40.161,40.161,0,0,0,38.426,10.458A39.607,39.607,0,0,0,144,456.048V385.889l8-16,8,16V456a39.979,39.979,0,0,0,40.021,39.993,41.869,41.869,0,0,0,9.048-1.017A23.833,23.833,0,0,0,216,496H424a24.027,24.027,0,0,0,24-24V344a40.045,40.045,0,0,0-40-40V280a24.027,24.027,0,0,0-24-24H328V143.419A56.078,56.078,0,0,0,376,88V24a8,8,0,0,0-12.438-6.656L320,46.385,276.438,17.344A8,8,0,0,0,264,24V88a56.078,56.078,0,0,0,48,55.419v53.434l-82.509-82.51a8,8,0,0,0-13.6,4.665c-.2,1.6-4.617,39.607,20.746,69.907,16.7,19.945,42.026,31.593,75.358,34.686V256H256a24.027,24.027,0,0,0-24,24v24a40.083,40.083,0,0,0-7.176.67A39.837,39.837,0,0,0,208,296.805V192A8,8,0,0,0,205.657,186.343Zm43.368-7.562c-10.7-12.714-14.976-27.459-16.6-38.873l65.508,65.508C276.7,201.1,260.3,192.181,249.025,178.781ZM280,88V38.948l35.562,23.708a8,8,0,0,0,8.876,0L360,38.948V88a40,40,0,0,1-80,0ZM192,296H160V262.624a24,24,0,0,0,0-45.248V163.314l32,32Zm-40-64a8,8,0,1,1-8,8A8.009,8.009,0,0,1,152,232Zm-8-68.686v54.062a24,24,0,0,0,0,45.248V296H112V195.314Zm-33.717,315.9a24.282,24.282,0,0,1-23.256-6.243A23.843,23.843,0,0,1,80,456v-8h48v8.048A23.635,23.635,0,0,1,110.283,479.216Zm18.562-98.794A7.994,7.994,0,0,0,128,384v48H80V336a24.027,24.027,0,0,1,24-24h40v38.112Zm54.182,92.551A23.843,23.843,0,0,1,176,456v-8h48v8.048a23.635,23.635,0,0,1-17.717,23.168A24.282,24.282,0,0,1,183.027,472.973ZM240,360H432v16H240ZM424,480H232.155A40.215,40.215,0,0,0,240,456.048V392H432v80A8.009,8.009,0,0,1,424,480ZM240,320a8,8,0,0,0,8-8V280a8.009,8.009,0,0,1,8-8H384a8.009,8.009,0,0,1,8,8v32a8,8,0,0,0,8,8h8a24.027,24.027,0,0,1,24,24H240v-8a39.759,39.759,0,0,0-3.35-16Zm-16,16v96H176V384a7.994,7.994,0,0,0-.845-3.578L160,350.112V312h40A24.027,24.027,0,0,1,224,336Z" style="fill:url(#linear-gradient)"/></svg>
