<?xml version="1.0"?>
<svg xmlns="http://www.w3.org/2000/svg" xmlns:xlink="http://www.w3.org/1999/xlink" id="Gradient" viewBox="0 0 512 512" width="512" height="512"><defs><linearGradient id="linear-gradient" x1="256" y1="448" x2="256" y2="64" gradientUnits="userSpaceOnUse"><stop offset="0" stop-color="#27c1e6"/><stop offset="0.5" stop-color="#c275e9"/><stop offset="1" stop-color="#f2515d"/></linearGradient></defs><path d="M184,280a8,8,0,0,1-8,8H112a8,8,0,0,1,0-16h64A8,8,0,0,1,184,280Zm-72,88a8,8,0,0,0,0,16h64a8,8,0,0,0,0-16Zm80-64H160a8,8,0,0,0,0,16h32a8,8,0,0,0,0-16Zm8,40a8,8,0,0,0-8-8H160a8,8,0,0,0,0,16h32A8,8,0,0,0,200,344ZM64,304h48a8,8,0,0,1,8,8v32a8,8,0,0,1-8,8H48a24,24,0,0,1,0-48Zm8,32h32V320H72Zm-24,0h8V320H48a8,8,0,0,0,0,16Zm447.871,86.569A7.983,7.983,0,0,1,496,424a24.027,24.027,0,0,1-24,24H376a24.028,24.028,0,0,1-23.987-23.208L327.14,288H264a40.045,40.045,0,0,1-40-40V224H72a24.027,24.027,0,0,1-24-24V160H24a8,8,0,0,1-8-8V104a8,8,0,0,1,8-8H64V72a8,8,0,0,1,11.578-7.155L137.888,96H348l21.6-28.8a8,8,0,0,1,12.8,0L404,96h20a24.029,24.029,0,0,1,23.792,20.894l18.551-18.551a8,8,0,0,1,11.314,11.314L448,139.313v15.271l34.971,13.988a8,8,0,0,1,2.686,13.085l-28.416,28.416ZM465.764,178.922l-15.3-6.122,3.3,18.128ZM368,96h16l-8-10.667ZM80,96h22.112L80,84.944ZM64,152H432V120a8.009,8.009,0,0,0-8-8H64Zm-16-8V112H32v32Zm24,64H96V168H64v32A8.009,8.009,0,0,0,72,208Zm40,0H312.6l-7.272-40H112Zm212.231,64L315.5,224h-.19l-29.656,29.657a8,8,0,0,1-11.314-11.314L292.687,224H240v24a24.027,24.027,0,0,0,24,24ZM479.978,424.6,440.749,208.811,433.324,168H321.586l46.285,254.569A7.983,7.983,0,0,1,368,424a8.009,8.009,0,0,0,8,8h96A8.011,8.011,0,0,0,479.978,424.6Zm-58.817-234.03,39.28,216A8,8,0,0,1,452.57,416H389.62a8,8,0,0,1-7.871-6.568l-39.28-216A8,8,0,0,1,350.34,184h62.95A8,8,0,0,1,421.161,190.569ZM442.984,400l-36.37-200h-46.69L396.3,400Z" style="fill:url(#linear-gradient)"/></svg>
