<?xml version="1.0"?>
<svg xmlns="http://www.w3.org/2000/svg" xmlns:xlink="http://www.w3.org/1999/xlink" id="Gradient" viewBox="0 0 512 512" width="512" height="512"><defs><linearGradient id="linear-gradient" x1="256" y1="496" x2="256" y2="16" gradientUnits="userSpaceOnUse"><stop offset="0" stop-color="#27c1e6"/><stop offset="0.5" stop-color="#c275e9"/><stop offset="1" stop-color="#f2515d"/></linearGradient></defs><path d="M472,48H440V24a8,8,0,0,0-8-8H400a8,8,0,0,0-8,8V48H360a24.027,24.027,0,0,0-24,24v32a8,8,0,0,0,8,8h.022A39.788,39.788,0,0,0,336,136V384H312.263A151.894,151.894,0,0,0,296,254.176V128a72.081,72.081,0,0,0-72-72H112a72.081,72.081,0,0,0-72,72V253.937A152.114,152.114,0,0,0,61.565,444.509,39.844,39.844,0,0,0,89.63,456H112v16a24.027,24.027,0,0,0,24,24h64a24.027,24.027,0,0,0,24-24v-8H352v8a24.027,24.027,0,0,0,24,24h64a24.027,24.027,0,0,0,24-24V432h8a24.027,24.027,0,0,0,24-24V136a39.788,39.788,0,0,0-8.022-24H488a8,8,0,0,0,8-8V72A24.027,24.027,0,0,0,472,48ZM408,32h16V48H408ZM352,72a8.009,8.009,0,0,1,8-8H472a8.009,8.009,0,0,1,8,8V96H352ZM274.832,228.1A154.071,154.071,0,0,0,248,206.861V200h32v33.461Q277.489,230.725,274.832,228.1ZM88,184H56V168H88Zm160-16h32v16H248Zm-16,30.169A150.793,150.793,0,0,0,169.117,184c-.374,0-.743,0-1.116,0a151.46,151.46,0,0,0-64,14.051V144a24.027,24.027,0,0,1,24-24h80a24.027,24.027,0,0,1,24,24ZM112,72H224a56.063,56.063,0,0,1,56,56v24H248v-8a40.045,40.045,0,0,0-40-40H128a40.045,40.045,0,0,0-40,40v8H56V128A56.063,56.063,0,0,1,112,72ZM56,200H88v6.7a153.239,153.239,0,0,0-27.092,21.438q-2.523,2.5-4.908,5.107ZM89.63,440a23.931,23.931,0,0,1-16.858-6.911A136,136,0,0,1,168,200c.332,0,.667,0,1,0A136.054,136.054,0,0,1,295.273,384H224v-8a24.027,24.027,0,0,0-24-24H136a24.027,24.027,0,0,0-24,24v64ZM208,472a8.009,8.009,0,0,1-8,8H136a8.009,8.009,0,0,1-8-8V376a8.009,8.009,0,0,1,8-8h64a8.009,8.009,0,0,1,8,8Zm16-24V400H352v48Zm224,24a8.009,8.009,0,0,1-8,8H376a8.009,8.009,0,0,1-8-8V376a8.009,8.009,0,0,1,8-8h64a8.009,8.009,0,0,1,8,8Zm24-56h-8V376a24.027,24.027,0,0,0-24-24H376a24.027,24.027,0,0,0-24,24V208H480V408A8.009,8.009,0,0,1,472,416Zm8-280v56H352V136a24.027,24.027,0,0,1,24-24h80A24.027,24.027,0,0,1,480,136Z" style="fill:url(#linear-gradient)"/></svg>
