<?xml version="1.0"?>
<svg xmlns="http://www.w3.org/2000/svg" xmlns:xlink="http://www.w3.org/1999/xlink" id="Gradient" viewBox="0 0 512 512" width="512" height="512"><defs><linearGradient id="linear-gradient" x1="256" y1="496" x2="256" y2="16" gradientUnits="userSpaceOnUse"><stop offset="0" stop-color="#27c1e6"/><stop offset="0.5" stop-color="#c275e9"/><stop offset="1" stop-color="#f2515d"/></linearGradient></defs><path d="M64,224a40.045,40.045,0,0,0-40,40V424a24.028,24.028,0,0,0,24,24H72v7.61C72,469.059,83.26,480,97.1,480H200v8a8,8,0,0,0,8,8h96a8,8,0,0,0,8-8v-8h48v8a8,8,0,0,0,8,8h48a71.9,71.9,0,0,0,72-72v-6.33a39.661,39.661,0,0,0-8.041-24.055l0,0a40.13,40.13,0,0,0-23.28-14.99L392,364.25V264a40.045,40.045,0,0,0-40-40h-8V112h8a24.027,24.027,0,0,0,24-24V56a24.027,24.027,0,0,0-24-24H296V24a8,8,0,0,0-8-8H256a8,8,0,0,0-8,8v8H168V24a8,8,0,0,0-8-8H128a8,8,0,0,0-8,8v8H64A24.027,24.027,0,0,0,40,56V88a24.027,24.027,0,0,0,24,24h8V224Zm0,16h8v32H40v-8A24.028,24.028,0,0,1,64,240ZM48,432a8.009,8.009,0,0,1-8-8V288H72V432Zm40,23.61V176h32v8a24,24,0,0,0,48,0v-8h80v8a24,24,0,0,0,48,0v-8h32v96H312v-8a40.045,40.045,0,0,0-40-40H144a40.045,40.045,0,0,0-40,40v80a24.028,24.028,0,0,0,24,24h72v16H144a40.045,40.045,0,0,0-40,40v40H97.1C92.082,464,88,460.236,88,455.61ZM136,184V160h16v24a8,8,0,0,1-16,0Zm128,0V160h16v24a8,8,0,0,1-16,0Zm0,248H216V402.246l48,12ZM200,312v40H128a8.009,8.009,0,0,1-8-8V264a24.028,24.028,0,0,1,24-24H272a24.028,24.028,0,0,1,24,24v8H240A40.045,40.045,0,0,0,200,312ZM120,464V424a24.027,24.027,0,0,1,24-24h56v64Zm352-40a55.878,55.878,0,0,1-32,50.622V472a8,8,0,0,0-16,0v7.413a56.8,56.8,0,0,1-8,.587h-8v-8a8,8,0,0,0-16,0v8H376v-8a8,8,0,0,0-8-8H304a8,8,0,0,0-8,8v8H280v-8a8,8,0,0,0-16,0v8H248v-8a8,8,0,0,0-16,0v8H216V448H405.49a71.536,71.536,0,0,0,50.917-21.093l14.921-14.921A24.213,24.213,0,0,1,472,417.67Zm-9.722-25.592-17.185,17.185A55.643,55.643,0,0,1,405.49,432H280V408a8,8,0,0,0-6.06-7.761L216,385.754V312a24.028,24.028,0,0,1,24-24h88v16H296a8,8,0,0,0,0,16h32v14.33c0,.559.013,1.116.036,1.67H296a8,8,0,0,0,0,16h36.062a39.8,39.8,0,0,0,27.262,21.379L453.2,394.238A24.089,24.089,0,0,1,462.278,398.408ZM362.8,357.761a23.965,23.965,0,0,1-13.229-8.024,7.993,7.993,0,0,0-5.5-13.733c-.037-.555-.071-1.11-.071-1.674V320a8,8,0,0,0,0-16V288h32V360.7ZM352,240a24.027,24.027,0,0,1,24,24v8H344V240Zm0-192a8.009,8.009,0,0,1,8,8V88a8.009,8.009,0,0,1-8,8H296V48ZM264,32h16v80H264ZM248,48V96H168V48ZM136,32h16v80H136ZM56,88V56a8.009,8.009,0,0,1,8-8h56V96H64A8.009,8.009,0,0,1,56,88Zm64,24v8a8,8,0,0,0,8,8h32a8,8,0,0,0,8-8v-8h80v8a8,8,0,0,0,8,8h32a8,8,0,0,0,8-8v-8h32v48H296v-8a8,8,0,0,0-8-8H256a8,8,0,0,0-8,8v8H168v-8a8,8,0,0,0-8-8H128a8,8,0,0,0-8,8v8H88V112Z" style="fill:url(#linear-gradient)"/></svg>
