<?xml version="1.0"?>
<svg xmlns="http://www.w3.org/2000/svg" xmlns:xlink="http://www.w3.org/1999/xlink" id="Gradient" viewBox="0 0 512 512" width="512" height="512"><defs><linearGradient id="linear-gradient" x1="256" y1="496" x2="256" y2="16" gradientUnits="userSpaceOnUse"><stop offset="0" stop-color="#27c1e6"/><stop offset="0.5" stop-color="#c275e9"/><stop offset="1" stop-color="#f2515d"/></linearGradient></defs><path d="M196.184,296H192a24.028,24.028,0,0,0-24,24v8h-8a8,8,0,0,0-8,8v80a8,8,0,0,0,8,8h32a8,8,0,0,0,7.155-4.422L212.944,392h86.112l13.789,27.578A8,8,0,0,0,320,424h32a8,8,0,0,0,8-8V336a8,8,0,0,0-8-8h-8v-8a24.028,24.028,0,0,0-24-24h-4.184A120.012,120.012,0,0,0,224,76.319V40a24.028,24.028,0,0,0-24-24H72A24.028,24.028,0,0,0,48,40v64a24.028,24.028,0,0,0,24,24h82.509a119.934,119.934,0,0,0,41.675,168ZM168,344H344v32H168Zm19.056,64H168V392h27.056Zm137.888,0-8-16H344v16ZM320,312a8.009,8.009,0,0,1,8,8v8H184v-8a8.009,8.009,0,0,1,8-8ZM256,88a104,104,0,1,1-85.917,45.4l24.26,24.261A8,8,0,0,0,208,152V126.629A24.042,24.042,0,0,0,224,104V93.03A103.572,103.572,0,0,1,256,88ZM64,104V40a8.009,8.009,0,0,1,8-8H200a8.009,8.009,0,0,1,8,8v64a8.009,8.009,0,0,1-8,8,8,8,0,0,0-8,8v12.686l-18.343-18.343A8,8,0,0,0,168,112H72A8.009,8.009,0,0,1,64,104ZM24,424H48a31.976,31.976,0,0,0,27.695-48H96a31.984,31.984,0,0,0,26.576-49.8,31.992,31.992,0,0,0,0-60.392A31.984,31.984,0,0,0,96,216H88a32.036,32.036,0,0,0-32-32H48a32.036,32.036,0,0,0-32,32V416A8,8,0,0,0,24,424Zm40-32a16.019,16.019,0,0,1-16,16H32V376H48A16.019,16.019,0,0,1,64,392Zm32-32H32V328H96a16,16,0,0,1,0,32Zm32-64a16.019,16.019,0,0,1-16,16H32V280h80A16.019,16.019,0,0,1,128,296ZM96,232a16,16,0,0,1,0,32H32V232ZM48,200h8a16.019,16.019,0,0,1,16,16H32A16.019,16.019,0,0,1,48,200Zm448,16a32.036,32.036,0,0,0-32-32h-8a32.036,32.036,0,0,0-32,32h-8a31.984,31.984,0,0,0-26.576,49.8,31.992,31.992,0,0,0,0,60.392A31.984,31.984,0,0,0,416,376h20.305A31.976,31.976,0,0,0,464,424h24a8,8,0,0,0,8-8Zm-40-16h8a16.019,16.019,0,0,1,16,16H440A16.019,16.019,0,0,1,456,200Zm-40,32h64v32H416a16,16,0,0,1,0-32Zm-32,64a16.019,16.019,0,0,1,16-16h80v32H400A16.019,16.019,0,0,1,384,296Zm16,48a16.019,16.019,0,0,1,16-16h64v32H416A16.019,16.019,0,0,1,400,344Zm64,64a16,16,0,0,1,0-32h16v32ZM248,120a8,8,0,0,1,8-8,80.091,80.091,0,0,1,80,80,8,8,0,0,1-16,0,64.072,64.072,0,0,0-64-64A8,8,0,0,1,248,120Zm152-16a8,8,0,0,0,16,0c0-25.141,24.8-31.941,25.969-32.246a8.007,8.007,0,0,0,.008-15.506C440.916,55.972,416,49.2,416,24a8,8,0,0,0-16,0c0,25.2-24.916,31.972-25.94,32.239a8.006,8.006,0,0,0-.037,15.513C375.084,72.028,400,78.8,400,104Zm8-53.28A51.418,51.418,0,0,0,421.393,64,51.418,51.418,0,0,0,408,77.28,51.418,51.418,0,0,0,394.607,64,51.418,51.418,0,0,0,408,50.72ZM120,408a8,8,0,0,0-16,0c0,25.2-24.916,31.972-25.94,32.239a8.006,8.006,0,0,0-.037,15.513C79.084,456.028,104,462.8,104,488a8,8,0,0,0,16,0c0-25.141,24.8-31.941,25.969-32.246a8.007,8.007,0,0,0,.008-15.506C144.916,439.972,120,433.2,120,408Zm-8,53.28A51.418,51.418,0,0,0,98.607,448,51.418,51.418,0,0,0,112,434.72,51.418,51.418,0,0,0,125.393,448,51.418,51.418,0,0,0,112,461.28ZM80,56a8,8,0,0,1,8-8h96a8,8,0,0,1,0,16H88A8,8,0,0,1,80,56ZM184,96H88a8,8,0,0,1,0-16h96a8,8,0,0,1,0,16Z" style="fill:url(#linear-gradient)"/></svg>
