<?xml version="1.0"?>
<svg xmlns="http://www.w3.org/2000/svg" xmlns:xlink="http://www.w3.org/1999/xlink" id="Gradient" viewBox="0 0 512 512" width="512" height="512"><defs><linearGradient id="linear-gradient" x1="256" y1="472" x2="256" y2="40" gradientUnits="userSpaceOnUse"><stop offset="0" stop-color="#27c1e6"/><stop offset="0.5" stop-color="#c275e9"/><stop offset="1" stop-color="#f2515d"/></linearGradient></defs><path d="M499.012,267.748,439.919,173.57A40.046,40.046,0,0,0,400,136H240a8,8,0,0,0-8,8v56.808a39.743,39.743,0,0,0-16,.011v-29.1a8,8,0,0,0-12-6.928,24,24,0,0,1-29.571-37.141A23.772,23.772,0,0,1,192,120a24.024,24.024,0,0,1,12,3.208,8,8,0,0,0,12-6.928V48a8,8,0,0,0-8-8H48A40.045,40.045,0,0,0,8,80V400a40.045,40.045,0,0,0,40,40H372.189A87.844,87.844,0,0,0,440,472h56a8,8,0,0,0,8-8V287.059a40.139,40.139,0,0,0-4.706-18.824C499.206,268.07,499.111,267.907,499.012,267.748ZM236,219.208a8,8,0,0,0,12-6.928V152H400a24.027,24.027,0,0,1,24,24V328H412.089l-44.24-61.225a40,40,0,0,0-66.212,44.9L312.668,328H248V267.72a8,8,0,0,0-12-6.928,24,24,0,1,1,0-41.584ZM216,279.2a39.441,39.441,0,0,0,4.918.693A40.377,40.377,0,0,0,232,279.2v17.613a39.887,39.887,0,0,0-16,0ZM48,56H200v48.808a40,40,0,1,0,0,78.392v24.825A39.79,39.79,0,0,0,184.793,232H139.72a8,8,0,0,0-6.928,12,24.006,24.006,0,1,1-41.584,0,8,8,0,0,0-6.928-12H24V80A24.027,24.027,0,0,1,48,56ZM204,356.792a8,8,0,0,0-4,6.928V424H48a24.027,24.027,0,0,1-24-24V248H72.8a40.009,40.009,0,0,0,36.3,47.9q1.482.105,2.949.105a39.585,39.585,0,0,0,27.2-10.728A40,40,0,0,0,151.192,248h33.613A40.182,40.182,0,0,0,200,271.95v36.33a8,8,0,0,0,12,6.928,24,24,0,0,1,20-1.831V336a8,8,0,0,0,8,8h6.632A24,24,0,0,1,212,356.792,8,8,0,0,0,204,356.792ZM216,424V375.2A40.012,40.012,0,0,0,263.2,344h60.28l28.549,42.254A87.4,87.4,0,0,0,361.639,424Zm272,32H440a72.085,72.085,0,0,1-71.984-70.485,8,8,0,0,0-1.227-5.994L314.9,302.716a24,24,0,1,1,39.771-26.872c.047.069.1.138.145.206l46.705,64.636A8,8,0,0,0,408,344h24a8,8,0,0,0,8-8V203.8L485.3,276a24.094,24.094,0,0,1,2.7,11.063Z" style="fill:url(#linear-gradient)"/></svg>
