<?xml version="1.0"?>
<svg xmlns="http://www.w3.org/2000/svg" xmlns:xlink="http://www.w3.org/1999/xlink" id="Gradient" viewBox="0 0 512 512" width="512" height="512"><defs><linearGradient id="linear-gradient" x1="256" y1="496" x2="256" y2="16" gradientUnits="userSpaceOnUse"><stop offset="0" stop-color="#27c1e6"/><stop offset="0.5" stop-color="#c275e9"/><stop offset="1" stop-color="#f2515d"/></linearGradient></defs><path d="M56,152a24.027,24.027,0,0,0,24-24V72h24a8,8,0,0,0,0-16H72a8,8,0,0,0-8,8v41.376A24,24,0,1,0,56,152Zm0-32a8,8,0,1,1-8,8A8.009,8.009,0,0,1,56,120ZM400,96a24.027,24.027,0,0,0,24-24V32h48V81.376A24,24,0,1,0,488,104V24a8,8,0,0,0-8-8H416a8,8,0,0,0-8,8V49.376A24,24,0,1,0,400,96Zm64,16a8,8,0,1,1,8-8A8.009,8.009,0,0,1,464,112ZM400,64a8,8,0,1,1-8,8A8.009,8.009,0,0,1,400,64Zm36.286,219.716a40.048,40.048,0,0,0,0-56.569A8,8,0,0,1,447.6,215.833a56,56,0,0,1,0,79.2,8,8,0,0,1-11.313-11.313Zm33.941-90.51a88,88,0,0,1,0,124.451,8,8,0,0,1-11.314-11.314,72,72,0,0,0,0-101.823,8,8,0,0,1,11.314-11.314ZM75.714,227.147a40.048,40.048,0,0,0,0,56.569A8,8,0,1,1,64.4,295.029a56,56,0,0,1,0-79.2,8,8,0,0,1,11.313,11.314Zm-33.941,90.51a88,88,0,0,1,0-124.451A8,8,0,1,1,53.087,204.52a72,72,0,0,0,0,101.823,8,8,0,0,1-11.314,11.314ZM488,432H472a24.027,24.027,0,0,0-24,24,24,24,0,0,1-48,0v-8h8a24.028,24.028,0,0,0,24-24V344a24.039,24.039,0,0,0-16-22.624V232c0-83.813-68.187-152-152-152H248C164.187,80,96,148.187,96,232v89.376A24.039,24.039,0,0,0,80,344v80a24.028,24.028,0,0,0,24,24h41.376A24.038,24.038,0,0,0,168,464h16a24.027,24.027,0,0,0,24-24V328a24.027,24.027,0,0,0-24-24H168a23.889,23.889,0,0,0-8,1.376V232a88.1,88.1,0,0,1,88-88h16a88.1,88.1,0,0,1,88,88v73.376A23.889,23.889,0,0,0,344,304H328a24.027,24.027,0,0,0-24,24V440a24.027,24.027,0,0,0,24,24h16a24.038,24.038,0,0,0,22.624-16H384v8a40,40,0,0,0,80,0,8.009,8.009,0,0,1,8-8h16a8,8,0,0,0,0-16Zm-72-8a8.009,8.009,0,0,1-8,8H368V336h40a8.009,8.009,0,0,1,8,8ZM96,424V344a8.009,8.009,0,0,1,8-8h40v96H104A8.009,8.009,0,0,1,96,424Zm72-104h16a8.009,8.009,0,0,1,8,8V440a8.009,8.009,0,0,1-8,8H168a8.009,8.009,0,0,1-8-8V328A8.009,8.009,0,0,1,168,320Zm96-192H248A104.118,104.118,0,0,0,144,232v88H112V232c0-74.991,61.009-136,136-136h16c74.991,0,136,61.009,136,136v88H368V232A104.118,104.118,0,0,0,264,128Zm88,312a8.009,8.009,0,0,1-8,8H328a8.009,8.009,0,0,1-8-8V328a8.009,8.009,0,0,1,8-8h16a8.009,8.009,0,0,1,8,8Z" style="fill:url(#linear-gradient)"/></svg>
