<?xml version="1.0"?>
<svg xmlns="http://www.w3.org/2000/svg" xmlns:xlink="http://www.w3.org/1999/xlink" id="Gradient" viewBox="0 0 512 512" width="512" height="512"><defs><linearGradient id="linear-gradient" x1="256.01" y1="496" x2="256.01" y2="15.999" gradientUnits="userSpaceOnUse"><stop offset="0" stop-color="#27c1e6"/><stop offset="0.5" stop-color="#c275e9"/><stop offset="1" stop-color="#f2515d"/></linearGradient></defs><path d="M184,136a16,16,0,1,1-16-16A16.019,16.019,0,0,1,184,136ZM490.07,356.277l-30.91,8.281a7.993,7.993,0,0,1-9.8-5.658L387.316,127.314c-.024-.078-.052-.155-.074-.234L362.4,34.35a8,8,0,0,1,5.658-9.8l30.91-8.281a8,8,0,0,1,9.8,5.658l24.838,92.724v.005l62.121,231.82a8,8,0,0,1-5.658,9.8ZM379.928,37.938l20.7,77.276,15.455-4.141L395.383,33.8ZM478.2,342.893,420.224,126.528l-15.446,4.139,57.969,216.366ZM384.02,431.966a7.987,7.987,0,0,1,6.04-7.727C391.084,423.972,416,417.2,416,392a8,8,0,0,1,16,0c0,25.2,24.916,31.972,25.977,32.248a8.007,8.007,0,0,1-.008,15.506C456.8,440.059,432,446.859,432,472a8,8,0,0,1-16,0c0-25.2-24.916-31.972-25.977-32.248A8.021,8.021,0,0,1,384.02,431.966Zm26.587.034A51.418,51.418,0,0,1,424,445.28,51.418,51.418,0,0,1,437.393,432,51.418,51.418,0,0,1,424,418.72,51.418,51.418,0,0,1,410.607,432ZM64,24c0,25.2,24.916,31.972,25.977,32.248a8.007,8.007,0,0,1-.008,15.506C88.8,72.059,64,78.859,64,104a8,8,0,0,1-16,0c0-25.2-24.916-31.972-25.977-32.248a8.006,8.006,0,0,1,.037-15.513C23.084,55.972,48,49.2,48,24a8,8,0,0,1,16,0Zm5.393,40A51.418,51.418,0,0,1,56,50.72,51.418,51.418,0,0,1,42.607,64,51.418,51.418,0,0,1,56,77.28,51.418,51.418,0,0,1,69.393,64ZM355.331,337.126a336.35,336.35,0,0,0,6.9,129.062A24,24,0,0,1,338.95,496H109.05a24.016,24.016,0,0,1-23.264-29.871,336.068,336.068,0,0,0,6.885-128.994l0-.011A356.5,356.5,0,0,0,82.031,288H80a24.027,24.027,0,0,1-24-24V232a24.027,24.027,0,0,1,24-24h43.316C94.866,188.688,80,166.875,80,144c0-28.509,15-55.3,42.245-75.434C146.445,50.679,178.5,40,208,40c35.747,0,65.5,16.427,88.428,48.825,19.751,27.907,34.466,67.983,43.783,119.175H368a24.028,24.028,0,0,1,24,24v32a24.028,24.028,0,0,1-24,24h-2.031a356.693,356.693,0,0,0-10.638,49.125ZM349.34,288H278.406c-1.061,14.272-2.635,27.755-4.691,40h66.82A374.2,374.2,0,0,1,349.34,288ZM368,224H279.676q.317,9.862.324,20c0,9.5-.213,18.872-.629,28H368a8.009,8.009,0,0,0,8-8V232A8.009,8.009,0,0,0,368,224ZM154.959,208h46.1c1.445-24.244,4.345-46.521,8.518-64.777C216.837,111.447,226.789,96,240,96s23.163,15.447,30.426,47.223c4.173,18.256,7.073,40.533,8.518,64.777h45c-8.9-47.492-22.539-84.445-40.578-109.932C263.333,69.761,238.68,56,208,56,155.131,56,96,93.634,96,144,96,172,127.662,194.128,154.959,208Zm100.428,130.7C260.941,313.124,264,279.49,264,244s-3.059-69.124-8.613-94.705c-6.953-32.024-14.5-36.813-15.387-37.264-.888.451-8.434,5.24-15.387,37.264C219.059,174.876,216,208.51,216,244s3.059,69.124,8.613,94.7c6.953,32.024,14.5,36.813,15.387,37.264C240.888,375.518,248.434,370.729,255.387,338.705ZM80,272H200.629c-.416-9.128-.629-18.5-.629-28q0-10.125.324-20H80a8.009,8.009,0,0,0-8,8v32A8.009,8.009,0,0,0,80,272Zm18.66,16a373.9,373.9,0,0,1,8.805,40h98.82c-2.056-12.245-3.63-25.728-4.691-40ZM346.706,470.05A352.821,352.821,0,0,1,338.324,344H270.6c-.057.256-.111.523-.169.777C263.163,376.553,253.211,392,240,392s-23.163-15.447-30.426-47.223c-.058-.254-.112-.521-.169-.777H109.677a352.509,352.509,0,0,1-8.364,125.991,8.058,8.058,0,0,0,1.468,6.955A7.907,7.907,0,0,0,109.05,480h229.9a8,8,0,0,0,7.756-9.95Z" style="fill:url(#linear-gradient)"/></svg>
