<?xml version="1.0"?>
<svg xmlns="http://www.w3.org/2000/svg" xmlns:xlink="http://www.w3.org/1999/xlink" id="Gradient" viewBox="0 0 512 512" width="512" height="512"><defs><linearGradient id="linear-gradient" x1="256" y1="496" x2="256" y2="16" gradientUnits="userSpaceOnUse"><stop offset="0" stop-color="#27c1e6"/><stop offset="0.5" stop-color="#c275e9"/><stop offset="1" stop-color="#f2515d"/></linearGradient></defs><path d="M464,336V296a8,8,0,0,0-8-8h-8V216a8,8,0,0,0-8-8h-8V144a8.007,8.007,0,0,0-1.823-5.084l-32.922-40a8,8,0,0,0-12.951.828l-15.078,24A8,8,0,0,0,368,128v80h-8a8,8,0,0,0-8,8v34.945a135.844,135.844,0,0,0-216-10.474V152.662l15.891-95.347A8.046,8.046,0,0,0,152,56a40.045,40.045,0,0,0-40-40H80A40.045,40.045,0,0,0,40,56a8.046,8.046,0,0,0,.109,1.315L56,152.662V472a24.028,24.028,0,0,0,24,24h32a24.135,24.135,0,0,0,13.811-4.393A39.741,39.741,0,0,0,144,496H464a8,8,0,0,0,8-8V344A8,8,0,0,0,464,336Zm-88.243,0q.237-3.99.243-8a136.3,136.3,0,0,0-2.121-24H448v32ZM384,130.305l7.951-12.656L416,146.869V208H384ZM368,224h64v64H369.994q-.929-3.01-1.994-5.959ZM240,208A120.136,120.136,0,0,1,360,328a118.6,118.6,0,0,1-24.015,72H315.056a104,104,0,1,0-150.112,0H144.015A118.6,118.6,0,0,1,120,328,120.136,120.136,0,0,1,240,208ZM208,416h64v16H208Zm-18.6-16A88,88,0,1,1,290.6,400ZM120,256H72V160h48ZM80,32h32a24.029,24.029,0,0,1,23.992,23.385L121.223,144H70.777L56.008,55.385A24.029,24.029,0,0,1,80,32Zm0,448a8.009,8.009,0,0,1-8-8V272h44.071A135.918,135.918,0,0,0,120,391.976V400h-8a8,8,0,0,0-8,8v48a39.793,39.793,0,0,0,8.021,24H80Zm64,0a24.028,24.028,0,0,1-24-24V416h72v24a8,8,0,0,0,8,8h80a8,8,0,0,0,8-8V416h72v40a24.028,24.028,0,0,1-24,24Zm312,0H367.978A39.788,39.788,0,0,0,376,456V408a8,8,0,0,0-8-8H355.371a136.668,136.668,0,0,0,18.474-48H456Z" style="fill:url(#linear-gradient)"/></svg>
