<?xml version="1.0"?>
<svg xmlns="http://www.w3.org/2000/svg" xmlns:xlink="http://www.w3.org/1999/xlink" id="Gradient" viewBox="0 0 512 512" width="512" height="512"><defs><linearGradient id="linear-gradient" x1="256.761" y1="496" x2="256.761" y2="16" gradientUnits="userSpaceOnUse"><stop offset="0" stop-color="#27c1e6"/><stop offset="0.5" stop-color="#c275e9"/><stop offset="1" stop-color="#f2515d"/></linearGradient></defs><path d="M384,140.124V128a40.045,40.045,0,0,0-40-40H296a40.045,40.045,0,0,0-40,40v12.124A72.274,72.274,0,0,0,224,200V488a8,8,0,0,0,8,8H408a8,8,0,0,0,8-8V200A72.274,72.274,0,0,0,384,140.124ZM272,128a24.028,24.028,0,0,1,24-24h48a24.028,24.028,0,0,1,24,24V272a8.009,8.009,0,0,1-8,8H280a8.009,8.009,0,0,1-8-8ZM400,480H240V200a56.193,56.193,0,0,1,16-39.169V272a24.028,24.028,0,0,0,24,24h80a24.028,24.028,0,0,0,24-24V160.831A56.193,56.193,0,0,1,400,200ZM288,336a8,8,0,0,1,8-8h48a8,8,0,0,1,0,16H296A8,8,0,0,1,288,336Zm80,32a8,8,0,0,1-8,8H280a8,8,0,0,1,0-16h80A8,8,0,0,1,368,368ZM288,200V136a8,8,0,0,1,16,0v64a8,8,0,0,1-16,0ZM244.534,78.591a8,8,0,0,0-.542-13.524C239.238,62.33,223.747,51.284,224,24.074a8,8,0,0,0-15.987-.525c-1.023,18.105-4.854,32.117-20.229,41.652a8,8,0,0,0-.318,13.39c16.222,11.159,19.85,35.14,20.576,42.224a8,8,0,0,0,15.916,0C224.684,113.731,228.312,89.751,244.534,78.591ZM216,89.384a63.412,63.412,0,0,0-11.269-16.94,52.069,52.069,0,0,0,11.261-14.375,54.82,54.82,0,0,0,11.22,14.437A63.459,63.459,0,0,0,216,89.384Zm275.992,63.683c-4.754-2.737-20.245-13.783-19.992-40.993a8,8,0,0,0-15.987-.525c-1.023,18.1-4.854,32.117-20.229,41.652a8,8,0,0,0-.318,13.39c16.222,11.159,19.85,35.14,20.576,42.224a8,8,0,0,0,15.916,0c.726-7.084,4.354-31.064,20.576-42.224a8,8,0,0,0-.542-13.524ZM464,177.384a63.412,63.412,0,0,0-11.269-16.94,52.069,52.069,0,0,0,11.261-14.375,54.82,54.82,0,0,0,11.22,14.437A63.459,63.459,0,0,0,464,177.384ZM166.479,304H151.674l-7.681-184.333A8,8,0,0,0,136,112H72a8,8,0,0,0-7.993,7.667L56.326,304h-14.8a24,24,0,0,0-23.9,26.173l13.091,144A23.883,23.883,0,0,0,54.611,496h98.778a23.883,23.883,0,0,0,23.9-21.827l13.091-144A24,24,0,0,0,166.479,304Zm-86.8-176h48.652l7.334,176H72.34ZM35.613,322.605A7.911,7.911,0,0,1,41.521,320H166.479a8,8,0,0,1,7.967,8.724L169.421,384H38.579l-5.025-55.276A7.912,7.912,0,0,1,35.613,322.605ZM153.389,480H54.611a7.96,7.96,0,0,1-7.966-7.276L40.033,400H167.967l-6.612,72.725A7.959,7.959,0,0,1,153.389,480Z" style="fill:url(#linear-gradient)"/></svg>
