<svg id="Gradient" height="512" viewBox="0 0 512 512" width="512" xmlns="http://www.w3.org/2000/svg" xmlns:xlink="http://www.w3.org/1999/xlink"><linearGradient id="linear-gradient" gradientUnits="userSpaceOnUse" x1="256" x2="256" y1="464" y2="48.006"><stop offset="0" stop-color="#27c1e6"/><stop offset=".5" stop-color="#c275e9"/><stop offset="1" stop-color="#f2515d"/></linearGradient><path d="m128 280a8 8 0 0 1 -8 8h-48a8 8 0 0 1 0-16h48a8 8 0 0 1 8 8zm-56 104a8 8 0 0 0 0 16h48a8 8 0 0 0 0-16zm64-72h-32a8 8 0 0 0 0 16h32a8 8 0 0 0 0-16zm8 40a8 8 0 0 0 -8-8h-32a8 8 0 0 0 0 16h32a8 8 0 0 0 8-8zm-96-48a32 32 0 1 1 -32 32 32.036 32.036 0 0 1 32-32zm0 16a16 16 0 1 0 16 16 16.019 16.019 0 0 0 -16-16zm448-136v272a8 8 0 0 1 -8 8h-64a8 8 0 0 1 -8-8v-16h-24a8 8 0 0 1 -8-8v-16h-24a72.081 72.081 0 0 1 -72-72v-24h-16a8 8 0 0 1 -8-8v-24h-16v72a24.027 24.027 0 0 1 -24 24h-16a24.027 24.027 0 0 1 -24-24v-72h-16a8 8 0 0 1 -8-8v-40h-136a8 8 0 0 1 -8-8v-48a8 8 0 0 1 8-8h191.726q-20.4-16.042-40.975-48.022a29 29 0 0 1 16.012-43.4l116.594-35.331a29.062 29.062 0 0 1 26.071 4.753l23.59 18.11a29.067 29.067 0 0 1 5.536 40.409l-.416.553c-12.563 16.689-33.977 45.131-60.31 62.93h186.172a8 8 0 0 1 8 7.998zm-464 40h32v-32h-32zm128 0v-32h-80v32zm95.964-48h.029c38.773-.035 75.643-49.015 93.362-72.553l.417-.553a13.018 13.018 0 0 0 -2.5-18.094l-23.59-18.111a13.026 13.026 0 0 0 -11.682-2.13l-116.6 35.334a12.994 12.994 0 0 0 -7.192 19.435c23.827 37.072 47.256 56.672 67.756 56.672zm-79.964 96h304v-80h-304zm200 32a24.027 24.027 0 0 0 24 24h16v-28.687l-10.343 10.344a8 8 0 0 1 -11.314-11.314l10.344-10.343h-28.687zm56 96h48v-112h-48zm-200-40v-24h-32v24a8.009 8.009 0 0 0 8 8h16a8.009 8.009 0 0 0 8-8zm0-72h-32v32h32zm48 16h32v-16h-32zm112 72h24v-32h-16a40.045 40.045 0 0 1 -40-40v-16h-32v24a8 8 0 0 1 -8 8h-16v24a56.064 56.064 0 0 0 56 56h24v-16a8 8 0 0 1 8-8zm24 48v-32h-16v32zm64 24v-32h-48v32zm-24-224h-256a8 8 0 0 0 0 16h256a8 8 0 0 0 0-16z" fill="url(#linear-gradient)"/></svg>