<?xml version="1.0"?>
<svg xmlns="http://www.w3.org/2000/svg" xmlns:xlink="http://www.w3.org/1999/xlink" id="Gradient" viewBox="0 0 512 512" width="512" height="512"><defs><linearGradient id="linear-gradient" x1="256" y1="496" x2="256" y2="16" gradientUnits="userSpaceOnUse"><stop offset="0" stop-color="#27c1e6"/><stop offset="0.5" stop-color="#c275e9"/><stop offset="1" stop-color="#f2515d"/></linearGradient></defs><path d="M488,32H456V24a8,8,0,0,0-16,0v8H424V24a8,8,0,0,0-16,0v8H392V24a8,8,0,0,0-16,0v8H360V24a8,8,0,0,0-16,0v8H328V24a8,8,0,0,0-16,0v8H296V24a8,8,0,0,0-16,0v8H264V24a8,8,0,0,0-16,0v8H232V24a8,8,0,0,0-16,0v8H200V24a8,8,0,0,0-16,0v8H168V24a8,8,0,0,0-16,0v8H136V24a8,8,0,0,0-16,0v8H104V24a8,8,0,0,0-16,0v8H72V24a8,8,0,0,0-16,0v8H24a8,8,0,0,0-8,8V408a8,8,0,0,0,8,8H49.99l-1.98,39.6c-.007.133,0,.266,0,.4H48v32a8,8,0,0,0,8,8h80a8,8,0,0,0,8-8V456h-.01c0-.133.007-.266,0-.4L142.01,416H168v56a24.028,24.028,0,0,0,24,24H352a24.028,24.028,0,0,0,24-24V416h29.877l1.667,56.71a23.9,23.9,0,0,0,24,23.29h.92a23.9,23.9,0,0,0,24-23.3l1.667-56.7H488a8,8,0,0,0,8-8V40A8,8,0,0,0,488,32ZM127.59,448H64.41l7.2-144h48.78ZM104,240H88V224h16ZM78.777,256h34.446l5.333,32H73.444ZM64,480V464h64v16Zm296-8a8.009,8.009,0,0,1-8,8H192a8.009,8.009,0,0,1-8-8V152a8.009,8.009,0,0,1,8-8H352a8.009,8.009,0,0,1,8,8Zm56-256.117V176h32v39.883L447.761,224H416.239ZM448,160H416V136.863a24.006,24.006,0,0,1,3.421-12.348L432,103.549l12.58,20.967A24.008,24.008,0,0,1,448,136.863ZM432.46,480h-.92a7.971,7.971,0,0,1-8-7.765L416.709,240h30.582l-6.827,232.229A7.972,7.972,0,0,1,432.46,480ZM480,400H458.594L464,216.235c0-.078,0-.157,0-.235V136.863a40.016,40.016,0,0,0-5.7-20.579l-19.44-32.4a8,8,0,0,0-13.72,0l-19.439,32.4a40.014,40.014,0,0,0-5.7,20.58V216c0,.078,0,.157,0,.235L405.406,400H376V152a24.028,24.028,0,0,0-24-24H192a24.028,24.028,0,0,0-24,24V400H141.21l-5.22-104.4a7.9,7.9,0,0,0-.1-.916h0l-8-48A8,8,0,0,0,120,240V216a8,8,0,0,0-8-8H80a8,8,0,0,0-8,8v24a8,8,0,0,0-7.892,6.685l-8,48h.005a7.9,7.9,0,0,0-.1.916L50.79,400H32V48H56v8a8,8,0,0,0,16,0V48H88v8a8,8,0,0,0,16,0V48h16v8a8,8,0,0,0,16,0V48h16v8a8,8,0,0,0,16,0V48h16v8a8,8,0,0,0,16,0V48h16v8a8,8,0,0,0,16,0V48h16v8a8,8,0,0,0,16,0V48h16v8a8,8,0,0,0,16,0V48h16v8a8,8,0,0,0,16,0V48h16v8a8,8,0,0,0,16,0V48h16v8a8,8,0,0,0,16,0V48h16v8a8,8,0,0,0,16,0V48h16v8a8,8,0,0,0,16,0V48h24ZM312,160a32,32,0,1,0,32,32A32.036,32.036,0,0,0,312,160Zm0,48a16,16,0,1,1,16-16A16.019,16.019,0,0,1,312,208Zm0,32a32,32,0,1,0,32,32A32.036,32.036,0,0,0,312,240Zm0,48a16,16,0,1,1,16-16A16.019,16.019,0,0,1,312,288Zm0,32a32,32,0,1,0,32,32A32.036,32.036,0,0,0,312,320Zm0,48a16,16,0,1,1,16-16A16.019,16.019,0,0,1,312,368Zm0,32a32,32,0,1,0,32,32A32.036,32.036,0,0,0,312,400Zm0,48a16,16,0,1,1,16-16A16.019,16.019,0,0,1,312,448ZM232,160a32,32,0,1,0,32,32A32.036,32.036,0,0,0,232,160Zm0,48a16,16,0,1,1,16-16A16.019,16.019,0,0,1,232,208Zm0,32a32,32,0,1,0,32,32A32.036,32.036,0,0,0,232,240Zm0,48a16,16,0,1,1,16-16A16.019,16.019,0,0,1,232,288Zm0,32a32,32,0,1,0,32,32A32.036,32.036,0,0,0,232,320Zm0,48a16,16,0,1,1,16-16A16.019,16.019,0,0,1,232,368Zm0,32a32,32,0,1,0,32,32A32.036,32.036,0,0,0,232,400Zm0,48a16,16,0,1,1,16-16A16.019,16.019,0,0,1,232,448Z" style="fill:url(#linear-gradient)"/></svg>
