<?xml version="1.0"?>
<svg xmlns="http://www.w3.org/2000/svg" xmlns:xlink="http://www.w3.org/1999/xlink" id="Gradient" viewBox="0 0 512 512" width="512" height="512"><defs><linearGradient id="linear-gradient" x1="256" y1="496" x2="256" y2="16" gradientUnits="userSpaceOnUse"><stop offset="0" stop-color="#27c1e6"/><stop offset="0.5" stop-color="#c275e9"/><stop offset="1" stop-color="#f2515d"/></linearGradient></defs><path d="M156.287,352.973a24.012,24.012,0,0,1,0-33.946A39.728,39.728,0,0,0,168,290.75V288h8a8,8,0,0,0,8-8V253.217c50.262-11.8,88-59.874,88-117.217,0-66.168-50.243-120-112-120S48,69.832,48,136c0,57.343,37.738,105.413,88,117.217V280a8,8,0,0,0,8,8h8v2.75a24.161,24.161,0,0,1-7.027,16.963,40.013,40.013,0,0,0,0,56.574l18.74,18.74a24.031,24.031,0,0,1,0,33.946l-18.74,18.74a40,40,0,0,0,0,56.574l1.37,1.37a8,8,0,1,0,11.314-11.314l-1.37-1.37a24,24,0,0,1,0-33.946l18.74-18.74a40.05,40.05,0,0,0,0-56.574ZM64,136c0-57.346,43.065-104,96-104s96,46.654,96,104-43.065,104-96,104S64,193.346,64,136Zm96,120c2.69,0,5.357-.108,8-.309V272H152V255.691C154.643,255.892,157.31,256,160,256ZM112.722,87.551a78.547,78.547,0,0,0,0,96.9A8,8,0,0,1,100.3,194.531a94.539,94.539,0,0,1,0-117.062,8,8,0,1,1,12.424,10.082ZM480,280c0-66.168-50.243-120-112-120S256,213.832,256,280c0,57.343,37.738,105.413,88,117.217V424a8,8,0,0,0,8,8h8v10.75a24.161,24.161,0,0,1-7.027,16.963A39.742,39.742,0,0,0,341.26,488a8,8,0,0,0,16,0,23.843,23.843,0,0,1,7.027-16.973A39.728,39.728,0,0,0,376,442.75V432h8a8,8,0,0,0,8-8V397.217C442.262,385.413,480,337.343,480,280Zm-208,0c0-57.346,43.065-104,96-104s96,46.654,96,104-43.065,104-96,104S272,337.346,272,280ZM376,416H360V399.691c2.643.2,5.31.309,8,.309s5.357-.108,8-.309ZM40,64A24,24,0,1,0,16,40,24.028,24.028,0,0,0,40,64Zm0-32a8,8,0,1,1-8,8A8.009,8.009,0,0,1,40,32ZM448.971,66.343l-48-48a8,8,0,0,0-11.315,0L367.029,40.97a8,8,0,0,0,0,11.314l48,48a8,8,0,0,0,11.315,0l22.627-22.627A8,8,0,0,0,448.971,66.343Zm-28.284,16.97L384,46.627l11.313-11.314L432,72ZM472,160a24,24,0,1,0-24-24A24.028,24.028,0,0,0,472,160Zm0-32a8,8,0,1,1-8,8A8.009,8.009,0,0,1,472,128ZM344.971,87.029a8,8,0,0,1,0,11.315l-22.627,22.627a8,8,0,0,1-11.315-11.315l22.627-22.627A8,8,0,0,1,344.971,87.029ZM36.686,232,48,220.686A8,8,0,0,1,59.314,232L48,243.314A8,8,0,0,1,36.686,232ZM72,376a7.974,7.974,0,0,0,5.657-2.343l22.627-22.627a8,8,0,0,0,0-11.314l-48-48a8,8,0,0,0-11.314,0L18.343,314.343a8,8,0,0,0,0,11.314l48,48A7.974,7.974,0,0,0,72,376ZM46.627,308.687l36.686,36.686L72,356.687,35.313,320ZM80,432a24,24,0,1,0,24,24A24.028,24.028,0,0,0,80,432Zm0,32a8,8,0,1,1,8-8A8.009,8.009,0,0,1,80,464ZM227.313,347.313a7.981,7.981,0,0,1-5.657-2.342l-22.627-22.627a8,8,0,0,1,11.315-11.315l22.627,22.627a8,8,0,0,1-5.658,13.657Zm34.344,73.776a8,8,0,0,0-11.314,0l-22.627,22.628a8,8,0,0,0,0,11.313l22.627,22.627a8,8,0,0,0,11.314,0l22.627-22.627a8,8,0,0,0,0-11.313ZM256,460.687l-11.313-11.314L256,438.059l11.313,11.314Zm215.03-64.971a8,8,0,0,0-11.314,0l-48,48a8,8,0,0,0,0,11.314l22.627,22.627a8,8,0,0,0,11.314,0l48-48a8,8,0,0,0,0-11.314ZM440,460.687l-11.313-11.314,36.686-36.686L476.687,424Zm-152-440L299.314,32A8,8,0,0,1,288,43.314L276.686,32A8,8,0,1,1,288,20.686Zm32.722,213.375a78.547,78.547,0,0,0,0,96.9A8,8,0,0,1,308.3,341.041a94.539,94.539,0,0,1,0-117.062,8,8,0,1,1,12.424,10.082Z" style="fill:url(#linear-gradient)"/></svg>
