<?xml version="1.0"?>
<svg xmlns="http://www.w3.org/2000/svg" xmlns:xlink="http://www.w3.org/1999/xlink" id="Gradient" viewBox="0 0 512 512" width="512" height="512"><defs><linearGradient id="linear-gradient" x1="272" y1="496" x2="272" y2="15.997" gradientUnits="userSpaceOnUse"><stop offset="0" stop-color="#27c1e6"/><stop offset="0.5" stop-color="#c275e9"/><stop offset="1" stop-color="#f2515d"/></linearGradient></defs><path d="M432,232V184a23.992,23.992,0,0,1,24-24,24,24,0,1,0,0-48,72.081,72.081,0,0,0-72,72v48a24.028,24.028,0,0,1-24,24V224A119.987,119.987,0,0,0,240,104H220.209c7.781-23.889,2.811-50.592-4.165-76.293a13,13,0,0,0-21.059-8.84c-.185.149-.363.3-.533.468L172.893,40H155.322L133.763,19.335c-.171-.164-.348-.319-.533-.468A13,13,0,0,0,112.154,27.9c-7.619,32.949-13.745,67.232-.067,94.057-.274,44.1,10.562,73.894,33.082,90.9l12.283,43.281A24.032,24.032,0,0,0,136,280v8a72.081,72.081,0,0,0-72,72v80a8,8,0,0,0,8,8H88v40a8,8,0,0,0,8,8h48a8,8,0,0,0,7.845-6.431L160.159,448H351.841l8.314,41.569A8,8,0,0,0,368,496h48a8,8,0,0,0,8-8V448h16a8,8,0,0,0,8-8V360a72.113,72.113,0,0,0-48.3-67.974A71.98,71.98,0,0,0,432,232Zm-32,0V184a56.063,56.063,0,0,1,56-56,8,8,0,0,1,0,16,39.991,39.991,0,0,0-40,40v48a56.063,56.063,0,0,1-56,56H349.916a43.932,43.932,0,0,0,8.407-16H360A40.045,40.045,0,0,0,400,232ZM152,280a8.009,8.009,0,0,1,8-8h8a8,8,0,0,0,7.7-10.185l-15.892-56a8.008,8.008,0,0,0-3.149-4.4c-19.78-13.666-29.119-40.262-28.549-81.307a7.986,7.986,0,0,0-1-3.984c-10.732-19.4-8.176-45.555-.156-81.158l19.621,18.806A8,8,0,0,0,152.107,56h24a8,8,0,0,0,5.536-2.225l19.749-18.929c6.831,25.887,11.043,52.394-.317,73.341A8,8,0,0,0,208.107,120H240A103.985,103.985,0,0,1,344,224v36a28.032,28.032,0,0,1-28,28H208V200a8,8,0,0,0-16,0v88H152ZM137.441,480H104V448h39.841ZM408,480H374.559l-6.4-32H408ZM80,432V368H432v64ZM376,304a56.078,56.078,0,0,1,55.419,48H80.581A56.078,56.078,0,0,1,136,304ZM152,88a8,8,0,1,1-8-8A8,8,0,0,1,152,88Zm40,0a8,8,0,1,1-8-8A8,8,0,0,1,192,88Z" style="fill:url(#linear-gradient)"/></svg>
