<svg id="Gradient" height="512" viewBox="0 0 512 512" width="512" xmlns="http://www.w3.org/2000/svg" xmlns:xlink="http://www.w3.org/1999/xlink"><linearGradient id="linear-gradient" gradientUnits="userSpaceOnUse" x1="256" x2="256" y1="496" y2="16"><stop offset="0" stop-color="#27c1e6"/><stop offset=".5" stop-color="#c275e9"/><stop offset="1" stop-color="#f2515d"/></linearGradient><path d="m168 56a8 8 0 1 1 8 8 8 8 0 0 1 -8-8zm48 8h56a8 8 0 0 0 0-16h-56a8 8 0 0 0 0 16zm144 432a88.613 88.613 0 0 1 -8.894-.447l.894.447h-224a40.045 40.045 0 0 1 -40-40v-400a40.045 40.045 0 0 1 40-40h192a40.045 40.045 0 0 1 40 40v110l59.294 111.177a40.132 40.132 0 0 1 4.706 18.823v192a8 8 0 0 1 -8 8zm45.177-211.294-45.177-84.706v160a8 8 0 0 1 -8 8h-24a8 8 0 0 1 -6.484-3.314l-46.705-64.636c-.049-.069-.1-.137-.145-.207a24 24 0 0 0 -39.772 26.874l51.895 76.8a8 8 0 0 1 1.227 5.994 72.085 72.085 0 0 0 71.984 70.489h48v-184a24.1 24.1 0 0 0 -2.823-11.294zm-61.177-188.706h-240v304h161.1l-43.463-64.326a40 40 0 0 1 66.213-44.9l44.239 61.226h11.911zm-240-40v24h240v-24a24.028 24.028 0 0 0 -24-24h-192a24.028 24.028 0 0 0 -24 24zm205.494 424a88 88 0 0 1 -37.111-64h-168.383v40a24.028 24.028 0 0 0 24 24zm-61.494-32a24 24 0 1 1 -24-24 24.027 24.027 0 0 1 24 24zm-16 0a8 8 0 1 0 -8 8 8.009 8.009 0 0 0 8-8zm-112-264v-64a8 8 0 0 1 8-8h192a8 8 0 0 1 8 8v64a8 8 0 0 1 -8 8h-192a8 8 0 0 1 -8-8zm16-8h176v-48h-176zm88-32h-64a8 8 0 0 0 0 16h64a8 8 0 0 0 0-16zm-96 80h112a8 8 0 0 0 0-16h-112a8 8 0 0 0 0 16zm112 16h-48a8 8 0 0 0 0 16h48a8 8 0 0 0 0-16zm-112 48h48a8 8 0 0 0 0-16h-48a8 8 0 0 0 0 16zm0 32h48a8 8 0 0 0 0-16h-48a8 8 0 0 0 0 16zm0 48a8 8 0 1 0 8 8 8 8 0 0 0 -8-8zm32 0a8 8 0 1 0 8 8 8 8 0 0 0 -8-8zm32 0a8 8 0 1 0 8 8 8 8 0 0 0 -8-8zm-64-16h64a8 8 0 0 0 0-16h-64a8 8 0 0 0 0 16zm200-136v32a8 8 0 0 1 -8 8h-48a8 8 0 0 1 -8-8v-32a8 8 0 0 1 8-8h48a8 8 0 0 1 8 8zm-16 8h-32v16h32zm-184 32h32a8 8 0 0 0 0-16h-32a8 8 0 0 0 0 16z" fill="url(#linear-gradient)"/></svg>