<?xml version="1.0"?>
<svg xmlns="http://www.w3.org/2000/svg" xmlns:xlink="http://www.w3.org/1999/xlink" id="Gradient" viewBox="0 0 512 512" width="512" height="512"><defs><linearGradient id="linear-gradient" x1="256" y1="496" x2="256" y2="16" gradientUnits="userSpaceOnUse"><stop offset="0" stop-color="#27c1e6"/><stop offset="0.5" stop-color="#c275e9"/><stop offset="1" stop-color="#f2515d"/></linearGradient></defs><path d="M128,32H96A24.028,24.028,0,0,0,72,56v9.376A24.038,24.038,0,0,0,56,88V280a24.027,24.027,0,0,0,24,24H200v8a23.882,23.882,0,0,0,1.479,8.3L78.242,455.856a24,24,0,1,0,35.516,32.288L232,358.078V472a24,24,0,0,0,48,0V358.078L398.242,488.144a24,24,0,1,0,35.516-32.288L310.521,320.3A23.882,23.882,0,0,0,312,312v-8H432a24.027,24.027,0,0,0,24-24V88a24.027,24.027,0,0,0-24-24H341.766l-10.53-31.59A23.97,23.97,0,0,0,308.468,16H203.532a23.97,23.97,0,0,0-22.768,16.411L170.234,64H152V56A24.028,24.028,0,0,0,128,32ZM96,48h32a8.009,8.009,0,0,1,8,8v8H88V56A8.009,8.009,0,0,1,96,48Zm5.919,429.381a8,8,0,1,1-11.838-10.762L211.842,332.681A23.857,23.857,0,0,0,224,336h6.448ZM256,480a8.009,8.009,0,0,1-8-8V336h16V472A8.009,8.009,0,0,1,256,480Zm167.991-7.62a8,8,0,0,1-13.91,5L281.552,336H288a23.857,23.857,0,0,0,12.158-3.319L421.919,466.619A7.942,7.942,0,0,1,423.991,472.38ZM296,312a8.009,8.009,0,0,1-8,8H224a8.009,8.009,0,0,1-8-8v-8h80Zm136-24H80a8.009,8.009,0,0,1-8-8V160h99.327a88,88,0,1,0,169.346,0H440V280A8.009,8.009,0,0,1,432,288ZM184,184a72,72,0,1,1,72,72A72.081,72.081,0,0,1,184,184ZM440,88v56H334.372a87.981,87.981,0,0,0-156.744,0H72V88a8.009,8.009,0,0,1,8-8H432A8.009,8.009,0,0,1,440,88ZM195.942,37.471A7.99,7.99,0,0,1,203.532,32H308.468a7.99,7.99,0,0,1,7.59,5.47L324.9,64H187.1ZM256,240a56,56,0,1,0-56-56A56.064,56.064,0,0,0,256,240Zm0-96a40,40,0,1,1-40,40A40.045,40.045,0,0,1,256,144Z" style="fill:url(#linear-gradient)"/></svg>
