<?xml version="1.0"?>
<svg xmlns="http://www.w3.org/2000/svg" xmlns:xlink="http://www.w3.org/1999/xlink" id="Gradient" viewBox="0 0 512 512" width="512" height="512"><defs><linearGradient id="linear-gradient" x1="256" y1="496" x2="256" y2="16" gradientUnits="userSpaceOnUse"><stop offset="0" stop-color="#27c1e6"/><stop offset="0.5" stop-color="#c275e9"/><stop offset="1" stop-color="#f2515d"/></linearGradient></defs><path d="M127.463,162.777a27.051,27.051,0,0,0-12.693-6.668c-6.965-1.529-13.257.083-17.717,4.543a20.011,20.011,0,0,0-5.612,11.358,20.009,20.009,0,0,0-11.358,5.613c-9.105,9.106-4.523,23.761,2.126,30.409,4.861,4.862,11.4,9.467,30.9,9.467,4.518,0,9.733-.248,15.782-.8a8,8,0,0,0,7.245-7.244c2.918-32.156-2.683-40.692-8.67-46.681M120.7,201.271c-21.412,1.225-25.247-2.619-27.181-4.553-1.637-1.637-3.4-6.509-2.125-7.782a4.933,4.933,0,0,1,3.538-1.2,10.3,10.3,0,0,1,2.471.314,7.841,7.841,0,0,0,10.079-10.078c-.121-.457-1.008-4.12.882-6.01.653-.654,2.3-.379,2.97-.229a11.366,11.366,0,0,1,4.812,2.353h0C118.083,176.024,121.921,179.864,120.7,201.271ZM216,24V92.926L173.417,50.343a8,8,0,0,0-11.314,0L26.343,186.1a8,8,0,0,0,0,11.314l237.59,237.59a8,8,0,0,0,11.314,0L321.5,388.754l14.527,21.5A88.1,88.1,0,0,0,424,496h56a8,8,0,0,0,8-8V296a40.132,40.132,0,0,0-4.706-18.823c-.083-.156-.17-.308-.264-.458l-59.03-95V24a8,8,0,0,0-8-8H224A8,8,0,0,0,216,24Zm-8.42,197.938c-.1-.447-2.41-11.008,5.437-18.861a13.379,13.379,0,0,1,2.983-2.24v66.274c-27.249,2.173-32.595-3.138-36.208-6.744-2.9-2.9-8.617-15.441-.715-23.349,7.846-7.848,18.415-5.539,18.791-5.455a7.967,7.967,0,0,0,9.712-9.625Zm62.01,196.1L43.313,191.76,167.76,67.313,216,115.554v68.313a29.02,29.02,0,0,0-14.3,7.9A35.81,35.81,0,0,0,191.3,215.3a35.788,35.788,0,0,0-23.538,10.406c-15.049,15.061-7.658,37.587.723,45.982,6.136,6.123,14.154,11.905,36.2,11.905,3.415,0,7.177-.143,11.312-.44V360a8,8,0,0,0,8,8h83.478l4.9,7.25ZM472,296V480H424a72.085,72.085,0,0,1-71.984-70.485,8,8,0,0,0-1.227-5.994l-51.895-76.8a24,24,0,0,1,39.772-26.874c.047.07.1.138.145.207l46.705,64.636A8,8,0,0,0,392,368h24a8,8,0,0,0,8-8V212.033l45.291,72.89A24.089,24.089,0,0,1,472,296ZM232,32H408V352H396.089l-44.241-61.226a40,40,0,0,0-66.212,44.9L296.667,352H232Zm49.344,156.438,32,48a8,8,0,0,0,13.312,0l32-48a8,8,0,0,0,0-8.876l-32-48a8,8,0,0,0-13.312,0l-32,48A8,8,0,0,0,281.344,188.438ZM320,150.422,342.385,184,320,217.578,297.615,184ZM294.946,87.969a8,8,0,0,0,0-7.938l-16-28a8,8,0,0,0-13.892,0l-16,28a8,8,0,0,0,0,7.938l16,28a8,8,0,0,0,13.892,0ZM272,95.875,265.214,84,272,72.125,278.786,84Z" style="fill:url(#linear-gradient)"/></svg>
