<?xml version="1.0"?>
<svg xmlns="http://www.w3.org/2000/svg" xmlns:xlink="http://www.w3.org/1999/xlink" id="Gradient" viewBox="0 0 512 512" width="512" height="512"><defs><linearGradient id="linear-gradient" x1="256" y1="496" x2="256" y2="16" gradientUnits="userSpaceOnUse"><stop offset="0" stop-color="#27c1e6"/><stop offset="0.5" stop-color="#c275e9"/><stop offset="1" stop-color="#f2515d"/></linearGradient></defs><path d="M24,344a24.028,24.028,0,0,0,24,24H292.294a27.579,27.579,0,0,0-.645,4.491,23.349,23.349,0,0,0,2.686,12.12l26.567,51.08a8.072,8.072,0,0,0,.7,1.109l22.378,29.837-.181,21.3a8,8,0,0,0,8,8.067H463.5a8,8,0,0,0,8-7.9l.42-33.629a32.83,32.83,0,0,1,1.685-9.985L483.91,413.57A79.574,79.574,0,0,0,488,388.362V40a24.028,24.028,0,0,0-24-24H48A24.028,24.028,0,0,0,24,40Zm16,0V192H56V328a8,8,0,0,0,8,8H344v16h-8.19a23.859,23.859,0,0,0-21.251-4.886l-2.325.581A27.344,27.344,0,0,0,302.939,352H48A8.009,8.009,0,0,1,40,344Zm416-64V192h16V300.305A31.8,31.8,0,0,0,456,296Zm-16-22.624A23.885,23.885,0,0,0,432,256h-8a24.039,24.039,0,0,0-16-22.624V192h32Zm-48-24A24.039,24.039,0,0,0,376,256h-8a23.885,23.885,0,0,0-8,1.376V192h32ZM344,280v40H312V192h32Zm-48,40H264V192h32Zm-48,0H216V192h32Zm-48,0H168V192h32Zm-48,0H120V192h32Zm-48,0H72V192h32Zm368,68.362a63.572,63.572,0,0,1-3.27,20.148l-10.305,30.916a48.772,48.772,0,0,0-2.5,14.845L455.6,480H359.865L360,464.067a8,8,0,0,0-1.6-4.867l-23.606-31.474-26.264-50.5a7.366,7.366,0,0,1-.908-3.789,11.183,11.183,0,0,1,8.493-10.223l2.324-.581a7.954,7.954,0,0,1,8.8,3.646l17.9,29.834A8,8,0,0,0,360,392V280a8.009,8.009,0,0,1,8-8h8v64a8,8,0,0,0,16,0V256a8,8,0,0,1,16,0v80a8,8,0,0,0,16,0V272h8a8.009,8.009,0,0,1,8,8v80a8,8,0,0,0,16,0V312a16.019,16.019,0,0,1,16,16ZM48,32H464a8.009,8.009,0,0,1,8,8V176H40V40A8.009,8.009,0,0,1,48,32Zm64,128a56,56,0,1,0-56-56A56.063,56.063,0,0,0,112,160Zm0-96a40,40,0,1,1-40,40A40.045,40.045,0,0,1,112,64Zm0,64a24,24,0,1,0-24-24A24.027,24.027,0,0,0,112,128Zm0-32a8,8,0,1,1-8,8A8.009,8.009,0,0,1,112,96Zm80,16H320a8,8,0,0,0,8-8V56a8,8,0,0,0-8-8H192a8,8,0,0,0-8,8v48A8,8,0,0,0,192,112Zm8-48H312V96H200ZM352,96h32a8,8,0,0,0,8-8V56a8,8,0,0,0-8-8H352a8,8,0,0,0-8,8V88A8,8,0,0,0,352,96Zm8-32h16V80H360Zm56,32h32a8,8,0,0,0,8-8V56a8,8,0,0,0-8-8H416a8,8,0,0,0-8,8V88A8,8,0,0,0,416,96Zm8-32h16V80H424ZM224,144a16,16,0,1,1-16-16A16.019,16.019,0,0,1,224,144Zm48,0a16,16,0,1,1-16-16A16.019,16.019,0,0,1,272,144Zm48,0a16,16,0,1,1-16-16A16.019,16.019,0,0,1,320,144Zm48,16a24,24,0,1,0-24-24A24.028,24.028,0,0,0,368,160Zm0-32a8,8,0,1,1-8,8A8.009,8.009,0,0,1,368,128Zm64,32a24,24,0,1,0-24-24A24.028,24.028,0,0,0,432,160Zm0-32a8,8,0,1,1-8,8A8.009,8.009,0,0,1,432,128ZM48,496a24.027,24.027,0,0,0,24-24V416H96a8,8,0,0,0,0-16H64a8,8,0,0,0-8,8v41.376A24,24,0,1,0,48,496Zm0-32a8,8,0,1,1-8,8A8.009,8.009,0,0,1,48,464Zm176-16a24,24,0,1,0,24,24V392a8,8,0,0,0-8-8H176a8,8,0,0,0-8,8v25.376A24,24,0,1,0,184,440V400h48v49.376A23.885,23.885,0,0,0,224,448Zm-64,0a8,8,0,1,1,8-8A8.009,8.009,0,0,1,160,448Zm64,32a8,8,0,1,1,8-8A8.009,8.009,0,0,1,224,480Z" style="fill:url(#linear-gradient)"/></svg>
