<?xml version="1.0"?>
<svg xmlns="http://www.w3.org/2000/svg" xmlns:xlink="http://www.w3.org/1999/xlink" id="Gradient" viewBox="0 0 512 512" width="512" height="512"><defs><linearGradient id="linear-gradient" x1="256" y1="464" x2="256" y2="48" gradientUnits="userSpaceOnUse"><stop offset="0" stop-color="#27c1e6"/><stop offset="0.5" stop-color="#c275e9"/><stop offset="1" stop-color="#f2515d"/></linearGradient></defs><path d="M80,120a8,8,0,0,1,8-8H208a8,8,0,0,1,0,16H88A8,8,0,0,1,80,120Zm128,40H88a8,8,0,0,0,0,16H208a8,8,0,0,0,0-16Zm0,48H88a8,8,0,0,0,0,16H208a8,8,0,0,0,0-16Zm0,48H88a8,8,0,0,0,0,16H208a8,8,0,0,0,0-16Zm0,48H88a8,8,0,0,0,0,16H208a8,8,0,0,0,0-16ZM392,160H272a8,8,0,0,0,0,16H392a8,8,0,0,0,0-16Zm0,48H272.816a8,8,0,0,0,0,16H392a8,8,0,0,0,0-16Zm102.656,19.562A7.993,7.993,0,0,1,496,232V456a8,8,0,0,1-8,8H456a88.084,88.084,0,0,1-78.361-48H40a24.027,24.027,0,0,1-24-24V104A24.027,24.027,0,0,1,40,80h8V56a8,8,0,0,1,8-8H424a8,8,0,0,1,8,8V80h8a24.027,24.027,0,0,1,24,24v77.578ZM432,96v37.578l16,24V104a8.009,8.009,0,0,0-8-8ZM416,64H400v72a8,8,0,0,1-11.578,7.155L360,128.944l-28.422,14.211A8,8,0,0,1,320,136v-8H272a8,8,0,0,1,0-16h48V64H248V368H361.1l-32.433-48H272.82a8,8,0,1,1,0-16h45.037l-.221-.326A39.9,39.9,0,0,1,311.9,272H272.82a8,8,0,1,1,0-16h46.965a39.983,39.983,0,0,1,61.984,0H392a8,8,0,0,1,.759,15.962L416,306.36V64Zm-80,59.056,20.422-10.211a8,8,0,0,1,7.156,0L384,123.056V64H336ZM64,368H232V64H64Zm307.332,32a87.466,87.466,0,0,1-2.949-16H56a8,8,0,0,1-8-8V96H40a8.009,8.009,0,0,0-8,8V392a8.009,8.009,0,0,0,8,8ZM480,234.422l-48-72V332.49a8,8,0,0,1-14.629,4.479l-46.236-68.431c-.031-.044-.061-.089-.091-.134l-.378-.56a24,24,0,0,0-39.772,26.872l8.623,12.763.068.1,43.2,63.943a8,8,0,0,1,1.227,5.994A72.085,72.085,0,0,0,456,448h24Z" style="fill:url(#linear-gradient)"/></svg>
