<?xml version="1.0"?>
<svg xmlns="http://www.w3.org/2000/svg" xmlns:xlink="http://www.w3.org/1999/xlink" id="Gradient" viewBox="0 0 512 512" width="512" height="512"><defs><linearGradient id="linear-gradient" x1="247.998" y1="496.999" x2="247.998" y2="13.996" gradientUnits="userSpaceOnUse"><stop offset="0" stop-color="#27c1e6"/><stop offset="0.5" stop-color="#c275e9"/><stop offset="1" stop-color="#f2515d"/></linearGradient></defs><path d="M424,168H376a24.028,24.028,0,0,0-24,24v8H327.644A88.01,88.01,0,0,0,240,120H219.681A80.147,80.147,0,0,0,150.25,14.021,8,8,0,0,0,141.9,24.066L155.331,74.2,124.422,82.48,110.988,32.35a8,8,0,0,0-12.256-4.525A80.037,80.037,0,0,0,114.069,168H96a31.987,31.987,0,0,0-21.153,55.992c-.5.446-1,.907-1.48,1.388a31.975,31.975,0,0,0,1.48,46.612c-.5.446-1,.907-1.48,1.388A31.824,31.824,0,0,0,64,296.611c.3,15.937,12.707,29.138,28.424,31.129A31.851,31.851,0,0,0,88,344.611C88.33,361.919,102.931,376,120.55,376h57.672l24.471,91.333a40,40,0,1,0,77.275-20.7L261.046,376H280a56.089,56.089,0,0,0,55.431-48H352v8a24.028,24.028,0,0,0,24,24h48a8,8,0,0,0,8-8V176A8,8,0,0,0,424,168Zm-286.469-5.682a8,8,0,0,0-6.143-5.771A64.022,64.022,0,0,1,98.759,48.526l12.278,45.823a8,8,0,0,0,9.8,5.657L167.2,87.583a8,8,0,0,0,5.657-9.8L160.578,31.961A64.022,64.022,0,0,1,186.33,141.825a8,8,0,0,0-2.434,8.07l4.851,18.1H139.054ZM264.514,450.773a24,24,0,0,1-46.367,12.416L194.786,376h49.695ZM328,312a8,8,0,0,0-8,8,40.045,40.045,0,0,1-40,40H120.55c-8.962,0-16.387-7.039-16.551-15.682A16.009,16.009,0,0,1,120,328h48a8,8,0,0,0,0-16H96.55c-8.962,0-16.387-7.039-16.551-15.682A16.009,16.009,0,0,1,96,280h48a8,8,0,0,0,0-16H96a16,16,0,0,1,0-32h48a8,8,0,0,0,0-16H96a16,16,0,0,1,0-32H248a8,8,0,0,0,0-16H205.311l-4.722-17.623A80.5,80.5,0,0,0,212.038,136H240a71.994,71.994,0,0,1,72,72,8,8,0,0,0,8,8h32v96Zm88,32H376a8.009,8.009,0,0,1-8-8V192a8.009,8.009,0,0,1,8-8h40Z" style="fill:url(#linear-gradient)"/></svg>
