<?xml version="1.0"?>
<svg xmlns="http://www.w3.org/2000/svg" xmlns:xlink="http://www.w3.org/1999/xlink" id="Gradient" viewBox="0 0 512 512" width="512" height="512"><defs><linearGradient id="linear-gradient" x1="256" y1="496" x2="256" y2="16" gradientUnits="userSpaceOnUse"><stop offset="0" stop-color="#27c1e6"/><stop offset="0.5" stop-color="#c275e9"/><stop offset="1" stop-color="#f2515d"/></linearGradient></defs><path d="M448,80H424V56a8,8,0,0,0-8-8V24a8,8,0,0,0-8-8H376a8,8,0,0,0-8,8V48a8,8,0,0,0-8,8V80H336a40.045,40.045,0,0,0-40,40v55.14a40.033,40.033,0,0,0,5.7,20.575l9.562,15.942a23.944,23.944,0,0,1,0,24.688L301.7,252.287A40.029,40.029,0,0,0,296,272.86v71.211a165.506,165.506,0,0,1-16.314-13.855,7.99,7.99,0,0,0-9.512-10c-2.456-2.807-4.846-5.682-7.126-8.669A39.992,39.992,0,0,0,231.4,296H216a24.008,24.008,0,0,0-24,24v8H146.51a55.947,55.947,0,0,1-39.6-16.407l-13.25-13.25A8,8,0,0,0,88,296H64a40.045,40.045,0,0,0-40,40V456a40.045,40.045,0,0,0,40,40H448a40.045,40.045,0,0,0,40-40V272.86a40.033,40.033,0,0,0-5.7-20.575l-9.562-15.942a23.944,23.944,0,0,1,0-24.688l9.562-15.942A40.029,40.029,0,0,0,488,175.14V120A40.045,40.045,0,0,0,448,80ZM384,32h16V48H384Zm-8,32h32V80H376ZM336,96H448a24.028,24.028,0,0,1,24,24v26.905c-9.245,4.143-31.162,13.1-48,13.1-10.459,0-19.479-3.608-29.029-7.428C384.436,148.357,373.541,144,360,144c-16.563,0-36.348,3.551-48,5.994V120A24.028,24.028,0,0,1,336,96ZM200,344a8,8,0,0,0,8-8V320a8.007,8.007,0,0,1,8-8h15.4a23.9,23.9,0,0,1,18.934,9.258c2.468,3.234,5.054,6.348,7.709,9.388l-15.7,15.7a8,8,0,0,0,11.314,11.314l15.422-15.422a181.175,181.175,0,0,0,18.128,15.243l-12.864,12.865a8,8,0,0,0,11.314,11.314l15.121-15.12a197.8,197.8,0,0,0,21.894,11.477l-8.329,8.329a8,8,0,0,0,11.314,11.314l13.167-13.167c2.829,1,5.687,1.969,8.6,2.871A261.74,261.74,0,0,0,376,394.424V408a24.028,24.028,0,0,1-24,24H40V376H96a40.058,40.058,0,0,0,39.352-32.875A72.137,72.137,0,0,0,146.51,344ZM64,312H84.686l10.907,10.907a72.362,72.362,0,0,0,24.23,15.959A24.031,24.031,0,0,1,96,360H40V336A24.028,24.028,0,0,1,64,312ZM40,456v-8H352a40.045,40.045,0,0,0,40-40V396.989c5.695.765,11.487,1.4,17.333,1.875A16.061,16.061,0,0,1,424,414.8V424a56.078,56.078,0,0,1-48,55.419V472a8,8,0,0,0-16,0v8H328v-8a8,8,0,0,0-16,0v8H280v-8a8,8,0,0,0-16,0v8H232v-8a8,8,0,0,0-16,0v8H184v-8a8,8,0,0,0-16,0v8H136v-8a8,8,0,0,0-16,0v8H88v-8a8,8,0,0,0-16,0v8H64A24.027,24.027,0,0,1,40,456ZM468.58,187.484l-9.559,15.939a39.9,39.9,0,0,0,0,41.152l9.559,15.939A24.02,24.02,0,0,1,472,272.86V456a24.028,24.028,0,0,1-24,24H413.185A71.883,71.883,0,0,0,440,424v-9.2a32.15,32.15,0,0,0-29.376-31.883c-8.626-.7-17.144-1.736-25.316-3.09h0a250.7,250.7,0,0,1-33.147-7.748c-.364-.113-.715-.24-1.077-.354a8,8,0,0,0-12.74-9.382l-3.49,3.489A185.748,185.748,0,0,1,312,354.592V272.86a24.016,24.016,0,0,1,3.42-12.344l9.559-15.939a39.9,39.9,0,0,0,0-41.152l-9.559-15.939A24.02,24.02,0,0,1,312,175.14v-8.774C322.2,164.133,343.309,160,360,160c10.459,0,19.479,3.608,29.029,7.428C399.564,171.643,410.459,176,424,176c16.507,0,35.919-6.718,48-11.674V175.14A24.016,24.016,0,0,1,468.58,187.484Z" style="fill:url(#linear-gradient)"/></svg>
