<svg id="Gradient" height="512" viewBox="0 0 512 512" width="512" xmlns="http://www.w3.org/2000/svg" xmlns:xlink="http://www.w3.org/1999/xlink"><linearGradient id="linear-gradient" gradientUnits="userSpaceOnUse" x1="257.224" x2="257.224" y1="496" y2="16"><stop offset="0" stop-color="#27c1e6"/><stop offset=".5" stop-color="#c275e9"/><stop offset="1" stop-color="#f2515d"/></linearGradient><path d="m424 128h-64a8 8 0 0 0 -8 8v48a8 8 0 0 0 8 8h64a8 8 0 0 0 8-8v-48a8 8 0 0 0 -8-8zm-8 48h-48v-32h48zm80-96a24.028 24.028 0 0 0 -24-24h-8a40.045 40.045 0 0 0 -40-40h-336a40.045 40.045 0 0 0 -40 40v128a24.028 24.028 0 0 0 24 24h24v32h-8a8 8 0 0 0 0 16h8v16h-53.55a23.993 23.993 0 0 0 -23.76 27.392l11.429 79.992a24.109 24.109 0 0 0 23.761 20.616h10.12v88a8 8 0 0 0 8 8h176a8 8 0 0 0 8-8v-88h168a40.045 40.045 0 0 0 40-40v-224h8a24.028 24.028 0 0 0 24-24zm-48-24v8h-312a24.028 24.028 0 0 1 -24-24v-8h312a24.028 24.028 0 0 1 24 24zm-291.53 152a23.98 23.98 0 0 0 22.77-16.411l10.527-31.589h106.233a24.028 24.028 0 0 1 24 24v64a24.028 24.028 0 0 1 -24 24h-184v-64zm-102.59 176a8.034 8.034 0 0 1 -7.92-6.872l-11.431-80a7.994 7.994 0 0 1 7.921-9.128h21.55v96zm26.12 96v-192h16v8a8 8 0 0 0 16 0v-8h128v192zm344-96h-168v-96h40a40.045 40.045 0 0 0 40-40v-64a40.045 40.045 0 0 0 -40-40h-112a8 8 0 0 0 -7.59 5.471l-12.348 37.054a8 8 0 0 1 -7.592 5.475h-12.47v-72a8 8 0 0 0 -16 0v72h-16v-72a8 8 0 0 0 -16 0v72h-24a8.009 8.009 0 0 1 -8-8v-128a24.028 24.028 0 0 1 24-24h8v8a40.045 40.045 0 0 0 40 40h312v280a24.028 24.028 0 0 1 -24 24zm56-272a8.009 8.009 0 0 1 -8 8h-8v-48h8a8.009 8.009 0 0 1 8 8zm-112 112a8 8 0 1 1 8-8 8 8 0 0 1 -8 8zm48 0a8 8 0 1 1 8-8 8 8 0 0 1 -8 8zm-96-112a8 8 0 0 1 -8 8h-34.158a16 16 0 1 1 0-16h34.158a8 8 0 0 1 8 8zm112 136a8 8 0 0 1 -8 8h-64a8 8 0 0 1 0-16h64a8 8 0 0 1 8 8zm0 32a8 8 0 0 1 -8 8h-64a8 8 0 0 1 0-16h64a8 8 0 0 1 8 8zm-336 64v-16a8 8 0 0 1 16 0v16a8 8 0 0 1 -16 0zm0 48v-16a8 8 0 0 1 16 0v16a8 8 0 0 1 -16 0zm32 48a8 8 0 0 1 -8 8h-16a8 8 0 0 1 -8-8v-16a8 8 0 0 1 16 0v8h8a8 8 0 0 1 8 8zm48 0a8 8 0 0 1 -8 8h-16a8 8 0 0 1 0-16h16a8 8 0 0 1 8 8zm48 0a8 8 0 0 1 -8 8h-16a8 8 0 0 1 0-16h16a8 8 0 0 1 8 8z" fill="url(#linear-gradient)"/></svg>