<?xml version="1.0"?>
<svg xmlns="http://www.w3.org/2000/svg" xmlns:xlink="http://www.w3.org/1999/xlink" id="Gradient" viewBox="0 0 512 512" width="512" height="512"><defs><linearGradient id="linear-gradient" x1="264" y1="496" x2="264" y2="16" gradientUnits="userSpaceOnUse"><stop offset="0" stop-color="#27c1e6"/><stop offset="0.5" stop-color="#c275e9"/><stop offset="1" stop-color="#f2515d"/></linearGradient></defs><path d="M447.59,485.47,432,438.7V184a8,8,0,0,0-8-8H400V72a56,56,0,0,0-112,0v8H256V24a8,8,0,0,0-8-8H200a8,8,0,0,0-8,8V62.852L176.5,36a8,8,0,0,0-10.929-2.929l-41.57,24A8,8,0,0,0,121.072,68L153.8,124.684A63.947,63.947,0,0,0,128,176H104a8,8,0,0,0-8,8V438.7L80.41,485.47A8,8,0,0,0,88,496H440a8,8,0,0,0,7.59-10.53ZM416,432H352V192h64ZM304,72a40,40,0,0,1,80,0V176H328V152a39.865,39.865,0,0,0-1.345-10.276L356,124.79a23.992,23.992,0,0,0,8.783-32.785A23.988,23.988,0,0,0,332,83.222L304,99.385V72Zm-48,56h32a24.028,24.028,0,0,1,24,24v24H256a63.718,63.718,0,0,0-15.809-42.045A24.014,24.014,0,0,1,256,128Zm50.375-11.511L340,97.077a8,8,0,0,1,8,13.855l-28.508,16.452A40.253,40.253,0,0,0,306.375,116.489ZM288,112H256V96h32ZM138.929,66.929l27.713-16L193.071,96.71a8,8,0,0,0,14.929-4V32h32v83.353a40.029,40.029,0,0,0-11.8,7.907A63.832,63.832,0,0,0,167.72,116.8ZM192,128a48.053,48.053,0,0,1,48,48H144A48.053,48.053,0,0,1,192,128Zm-80,64H336V432H112ZM322.234,480H99.1l10.667-32H332.9Zm16.866,0,10.667-32h68.467L428.9,480ZM296,208H264a8,8,0,0,0-8,8v56H192V216a8,8,0,0,0-8-8H152a8,8,0,0,0-8,8v80a24.028,24.028,0,0,0,24,24H280a24.028,24.028,0,0,0,24-24V216A8,8,0,0,0,296,208Zm-8,88a8.009,8.009,0,0,1-8,8H168a8.009,8.009,0,0,1-8-8V224h16v56a8,8,0,0,0,8,8h80a8,8,0,0,0,8-8V224h16Z" style="fill:url(#linear-gradient)"/></svg>
