<svg id="Gradient" height="512" viewBox="0 0 512 512" width="512" xmlns="http://www.w3.org/2000/svg" xmlns:xlink="http://www.w3.org/1999/xlink"><linearGradient id="linear-gradient" gradientUnits="userSpaceOnUse" x1="256" x2="256" y1="496" y2="16"><stop offset="0" stop-color="#27c1e6"/><stop offset=".5" stop-color="#c275e9"/><stop offset="1" stop-color="#f2515d"/></linearGradient><path d="m488 112h-32a8 8 0 0 0 -8 8v41.376a24 24 0 1 0 16 22.624v-56h24a8 8 0 0 0 0-16zm-48 80a8 8 0 1 1 8-8 8.009 8.009 0 0 1 -8 8zm-336 176a24 24 0 1 0 24 24v-80a8 8 0 0 0 -8-8h-64a8 8 0 0 0 -8 8v25.376a24 24 0 1 0 16 22.624v-40h48v49.376a23.889 23.889 0 0 0 -8-1.376zm-64 0a8 8 0 1 1 8-8 8.009 8.009 0 0 1 -8 8zm64 32a8 8 0 1 1 8-8 8.009 8.009 0 0 1 -8 8zm152-192a24.027 24.027 0 0 0 -24 24v48a8 8 0 0 0 8 8h32a8 8 0 0 0 8-8v-48a24.027 24.027 0 0 0 -24-24zm-8 64v-17.376a23.944 23.944 0 0 0 16 0v17.376zm8-32a8 8 0 1 1 8-8 8.009 8.009 0 0 1 -8 8zm128 256a8 8 0 0 0 8-8v-48a40 40 0 0 0 -80 0v16a24 24 0 0 1 -48 0v-24h8a8 8 0 0 0 8-8v-24h9.18a24.111 24.111 0 0 0 23.936-22.157l14.861-193.23h-.008c.015-.2.031-.406.031-.613v-29.409a88.535 88.535 0 0 0 12.8-27.073 24 24 0 0 0 -.009-47.037 87.986 87.986 0 0 0 -169.576 0 24 24 0 0 0 -.009 47.037 88.535 88.535 0 0 0 12.794 27.073v29.409c0 .207.016.41.031.613h-.008l14.861 193.229a24.111 24.111 0 0 0 23.936 22.158h9.18v24a8 8 0 0 0 8 8h8v24a40 40 0 0 0 80 0v-16a24 24 0 0 1 48 0v48a8 8 0 0 0 8 8zm-187.864-352a72.459 72.459 0 0 1 -7.992-16h135.712a72.459 72.459 0 0 1 -7.992 16zm3.864 16h112v16h-112zm56-128a72.241 72.241 0 0 1 67.887 48h-135.774a72.241 72.241 0 0 1 67.887-48zm-80 64h160a8 8 0 0 1 0 16h-160a8 8 0 0 1 0-16zm38.837 280.617-14.198-184.617h110.722l-14.2 184.618a8.037 8.037 0 0 1 -7.981 7.382h-66.36a8.037 8.037 0 0 1 -7.983-7.383zm49.163 23.383v16h-16v-16z" fill="url(#linear-gradient)"/></svg>