<?xml version="1.0"?>
<svg xmlns="http://www.w3.org/2000/svg" xmlns:xlink="http://www.w3.org/1999/xlink" id="Gradient" viewBox="0 0 512 512" width="512" height="512"><defs><linearGradient id="linear-gradient" x1="256.001" y1="480" x2="256.001" y2="32.003" gradientUnits="userSpaceOnUse"><stop offset="0" stop-color="#27c1e6"/><stop offset="0.5" stop-color="#c275e9"/><stop offset="1" stop-color="#f2515d"/></linearGradient></defs><path d="M407.335,97.13A21.255,21.255,0,0,0,400.5,86.2a21.451,21.451,0,0,0-2.12-34.194l-6.3-4.188-4.2-6.264A21.549,21.549,0,0,0,369.948,32h-.01a21.572,21.572,0,0,0-16.388,7.509A21.573,21.573,0,0,0,337.161,32h-.009a21.556,21.556,0,0,0-16.378,7.512A21.553,21.553,0,0,0,304.4,32h-.008A21.57,21.57,0,0,0,288,39.512,21.577,21.577,0,0,0,271.611,32H271.6a21.552,21.552,0,0,0-16.377,7.513A21.554,21.554,0,0,0,238.848,32h-.009a21.573,21.573,0,0,0-16.389,7.509A21.574,21.574,0,0,0,206.062,32h-.01a21.55,21.55,0,0,0-17.927,9.551l-4.2,6.265L177.635,52a21.452,21.452,0,0,0-2.13,34.206,21.45,21.45,0,0,0,0,32.6,21.459,21.459,0,0,0,0,32.6,21.46,21.46,0,0,0,0,32.6,21.474,21.474,0,0,0-7.479,15.469l-.021.021a21.469,21.469,0,0,0-32.6,0,21.467,21.467,0,0,0-32.6,0A21.433,21.433,0,0,0,86.5,192h-.009A21.42,21.42,0,0,0,70.2,199.5,21.428,21.428,0,0,0,53.9,192h-.009a21.425,21.425,0,0,0-17.885,9.617l-4.188,6.3-6.27,4.205a21.637,21.637,0,0,0-2.036,34.332,21.68,21.68,0,0,0-7.435,18.224,21.458,21.458,0,0,0,7.43,14.544,21.659,21.659,0,0,0,0,32.784,21.633,21.633,0,0,0,.006,32.767,21.642,21.642,0,0,0,0,32.779,21.629,21.629,0,0,0,2.043,34.326l6.265,4.2L36,422.369A21.428,21.428,0,0,0,53.892,432H53.9a21.429,21.429,0,0,0,16.3-7.5A21.415,21.415,0,0,0,86.492,432H86.5a21.435,21.435,0,0,0,16.3-7.5,21.571,21.571,0,0,0,16.323,7.5c.464,0,.931-.015,1.4-.045A21.273,21.273,0,0,0,135.4,424.5a21.469,21.469,0,0,0,32.6,0,21.469,21.469,0,0,0,32.6,0,21.467,21.467,0,0,0,32.6,0,21.433,21.433,0,0,0,16.3,7.5h.009a21.417,21.417,0,0,0,16.289-7.5,21.428,21.428,0,0,0,16.3,7.5h.009a21.423,21.423,0,0,0,17.885-9.617l4.188-6.3,6.27-4.205a21.629,21.629,0,0,0,2.039-34.322,21.642,21.642,0,0,0,0-32.778,21.583,21.583,0,0,0,7.474-15.4c.277-.29.554-.579.815-.886A21.555,21.555,0,0,0,337.152,336h.009a21.575,21.575,0,0,0,16.388-7.508A21.516,21.516,0,0,0,360,333.568V456a24.028,24.028,0,0,0,24,24h16a24.028,24.028,0,0,0,24-24V298.953A104,104,0,0,0,407.335,97.13ZM80,324.169A88.229,88.229,0,0,1,108.673,368H80ZM80,304.4V285.9A120.425,120.425,0,0,1,141.587,368H125.2A104.353,104.353,0,0,0,80,304.4ZM37.556,288.882l4.5-3.018a7.978,7.978,0,0,0,1.161-12.32A118.959,118.959,0,0,1,64,278.864v17.141A103.159,103.159,0,0,0,37.556,288.882ZM80,268.072V256h90.22a21.436,21.436,0,0,0,5.284,25.8,21.451,21.451,0,0,0,2.118,34.2l6.3,4.188,4.2,6.264A21.549,21.549,0,0,0,206.052,336h.01a21.572,21.572,0,0,0,16.388-7.509A21.57,21.57,0,0,0,238.839,336h.009a21.554,21.554,0,0,0,16.373-7.507c.251.294.514.574.779.853V368H157.879A136.48,136.48,0,0,0,80,268.072ZM34.466,225.4l7.59-5.09a8,8,0,0,0,2.207-2.216l5.076-7.639A5.419,5.419,0,0,1,53.9,208h0a5.433,5.433,0,0,1,4.573,2.467l5.06,7.63A8,8,0,0,0,70.2,221.67h0a8,8,0,0,0,6.663-3.573l5.075-7.638A5.42,5.42,0,0,1,86.5,208h0a5.432,5.432,0,0,1,4.572,2.466l5.06,7.63a8,8,0,0,0,13.334,0l5.058-7.628a5.473,5.473,0,0,1,9.148,0l5.06,7.63a8,8,0,0,0,13.334,0l5.058-7.627a5.473,5.473,0,0,1,9.148,0l5.06,7.63a8,8,0,0,0,10.47,2.616A21.437,21.437,0,0,0,169.208,240H72a8,8,0,0,0-8,8v14.006a135.079,135.079,0,0,0-27.181-5.4l5.237-3.511a8,8,0,0,0,0-13.289l-7.585-5.086a5.633,5.633,0,0,1,0-9.316ZM102.8,402.32a8,8,0,0,0-6.667,3.579l-5.058,7.626A5.434,5.434,0,0,1,86.5,416h0a5.425,5.425,0,0,1-4.566-2.472l-5.07-7.629A8,8,0,0,0,70.2,402.32h0a8,8,0,0,0-6.664,3.578l-5.058,7.628A5.437,5.437,0,0,1,53.9,416h0a5.426,5.426,0,0,1-4.565-2.473l-5.07-7.629a8.017,8.017,0,0,0-2.207-2.217l-7.585-5.086a5.623,5.623,0,0,1,0-9.306l7.59-5.09a8,8,0,0,0,0-13.289l-7.585-5.086a5.632,5.632,0,0,1,0-9.315l7.59-5.091a8,8,0,0,0,0-13.288l-7.585-5.086a5.622,5.622,0,0,1,0-9.305l7.59-5.089a7.99,7.99,0,0,0,.891-12.585A87.325,87.325,0,0,1,64,313.629V376a8,8,0,0,0,8,8h39.633c.238,2.635.367,5.3.367,8v17.721l-2.533-3.82A8,8,0,0,0,102.8,402.32Zm32.6,0a8,8,0,0,0-6.667,3.578L128,407V392q0-4.035-.305-8h16.032c.175,2.644.273,5.309.273,8v16.817l-1.933-2.915A8,8,0,0,0,135.4,402.32Zm158.544-18.126,7.591,5.09a5.623,5.623,0,0,1,0,9.3l-7.59,5.09a8.017,8.017,0,0,0-2.207,2.217l-5.076,7.638A5.419,5.419,0,0,1,282.1,416h0a5.433,5.433,0,0,1-4.573-2.467l-5.06-7.63a8,8,0,0,0-6.664-3.578h0a8,8,0,0,0-6.663,3.574l-5.075,7.637A5.42,5.42,0,0,1,249.5,416h0a5.432,5.432,0,0,1-4.572-2.466l-5.06-7.63a8,8,0,0,0-13.334,0l-5.058,7.628a5.473,5.473,0,0,1-9.148,0l-5.06-7.63a8,8,0,0,0-13.334,0l-5.058,7.627a5.473,5.473,0,0,1-9.148,0l-5.06-7.63a8,8,0,0,0-13.334,0L160,407.909V392c0-2.685-.087-5.35-.242-8H264a8,8,0,0,0,8-8V335.972a21.638,21.638,0,0,0,3.8-.378,21.379,21.379,0,0,0,12.2-7.105,21.568,21.568,0,0,0,10.429,6.626l-4.488,3.01a8,8,0,0,0,0,13.288l7.585,5.088a5.631,5.631,0,0,1,0,9.314l-7.59,5.09a8,8,0,0,0,0,13.289ZM353.55,306.4a8,8,0,0,0-6.645,3.544l-5.086,7.585A5.552,5.552,0,0,1,337.161,320h0a5.54,5.54,0,0,1-4.649-2.469l-5.1-7.59a8,8,0,0,0-6.639-3.538h0a8,8,0,0,0-6.641,3.544l-5.088,7.588a5.367,5.367,0,0,1-1.615,1.586,5.638,5.638,0,0,1-7.688-1.584l-5.089-7.59a8,8,0,0,0-13.29,0l-5.085,7.585a5.45,5.45,0,0,1-3.539,2.362,5.727,5.727,0,0,1-4.293-.856,5.261,5.261,0,0,1-1.473-1.5l-5.09-7.59a8,8,0,0,0-6.641-3.544h0a8,8,0,0,0-6.639,3.538l-5.106,7.6A5.535,5.535,0,0,1,238.841,320h0a5.55,5.55,0,0,1-4.654-2.463l-5.09-7.59a8,8,0,0,0-13.289,0l-5.086,7.585A5.554,5.554,0,0,1,206.061,320h0a5.534,5.534,0,0,1-4.645-2.463l-5.09-7.59a8.017,8.017,0,0,0-2.217-2.207l-7.642-5.079a5.454,5.454,0,0,1,.007-9.131l7.63-5.06a8,8,0,0,0,0-13.33l-7.641-5.077a5.456,5.456,0,0,1,.006-9.133l7.63-5.06a8,8,0,0,0,0-13.334l-7.631-5.061a5.463,5.463,0,0,1,0-9.145l7.63-5.06a8,8,0,0,0,0-13.334l-7.614-5.049a5.419,5.419,0,0,1-2.385-3.507l-.018-.1a5.43,5.43,0,0,1,2.387-5.551l7.63-5.06a8,8,0,0,0,0-13.334l-7.63-5.06a5.465,5.465,0,0,1,0-9.146l7.63-5.06a8,8,0,0,0,0-13.334l-7.631-5.061a5.463,5.463,0,0,1,0-9.145l7.63-5.06a8,8,0,0,0,0-13.334l-7.63-5.06a5.455,5.455,0,0,1,.006-9.14l7.629-5.07a8,8,0,0,0,0-13.33l-7.631-5.061a5.454,5.454,0,0,1,.007-9.139l7.629-5.07a8.017,8.017,0,0,0,2.217-2.207l5.09-7.591A5.535,5.535,0,0,1,206.059,48h0a5.551,5.551,0,0,1,4.655,2.463l5.09,7.59a8,8,0,0,0,13.289,0l5.086-7.585A5.552,5.552,0,0,1,238.839,48h0a5.54,5.54,0,0,1,4.649,2.469l5.1,7.59a8,8,0,0,0,6.636,3.538h0a8,8,0,0,0,6.636-3.532l5.1-7.6A5.535,5.535,0,0,1,271.609,48h0a5.551,5.551,0,0,1,4.655,2.463l5.089,7.59A8,8,0,0,0,287.99,61.6H288a8,8,0,0,0,6.633-3.528l5.1-7.6A5.554,5.554,0,0,1,304.389,48h0a5.534,5.534,0,0,1,4.644,2.463l5.09,7.59a8,8,0,0,0,6.641,3.544h0a8,8,0,0,0,6.639-3.538l5.106-7.6A5.535,5.535,0,0,1,337.159,48h0a5.55,5.55,0,0,1,4.654,2.463l5.09,7.59a8,8,0,0,0,13.289,0l5.086-7.585A5.554,5.554,0,0,1,369.939,48h0a5.534,5.534,0,0,1,4.645,2.463l5.09,7.59a8.017,8.017,0,0,0,2.217,2.207l7.642,5.079a5.454,5.454,0,0,1-.007,9.131l-7.63,5.06a8,8,0,0,0,0,13.33l4.912,3.264A103.394,103.394,0,0,0,360,101.041V88a8,8,0,0,0-8-8H224a8,8,0,0,0-8,8V280a8,8,0,0,0,8,8H336.642A103.54,103.54,0,0,0,360,298.953V309.69A7.993,7.993,0,0,0,353.55,306.4ZM293.215,167.471,288,172.686l-5.543-5.552a14.788,14.788,0,0,0-20.917,0l-11.2,11.21a8,8,0,1,0,11.318,11.308L272,179.305l5.543,5.552a14.737,14.737,0,0,0,11.021,4.3A104.688,104.688,0,0,0,288,200c0,1.536.04,3.063.107,4.583l-.106.106-5.543-5.552a14.788,14.788,0,0,0-20.917,0l-11.2,11.21a8,8,0,1,0,11.318,11.308L272,211.305l5.543,5.552a14.758,14.758,0,0,0,12.591,4.154,103.041,103.041,0,0,0,2.823,10.718L288,236.686l-5.543-5.552a14.788,14.788,0,0,0-20.917,0l-11.2,11.21a8,8,0,1,0,11.318,11.308L272,243.305l5.543,5.552a14.805,14.805,0,0,0,20.914,0l1.151-1.151A104.507,104.507,0,0,0,317.029,272H232V96H344v11.759A104.535,104.535,0,0,0,293.215,167.471ZM400,464H384a8.009,8.009,0,0,1-8-8V336h32V456A8.009,8.009,0,0,1,400,464Zm8-144H376V302.766a104.6,104.6,0,0,0,32,0Zm-16-32a88.116,88.116,0,0,1-87.725-81.041l0-.057Q304,203.482,304,200a88,88,0,1,1,88,88Zm0-160a72,72,0,1,0,72,72A72.081,72.081,0,0,0,392,128Zm0,128a56,56,0,1,1,56-56A56.063,56.063,0,0,1,392,256Z" style="fill:url(#linear-gradient)"/></svg>
