<?xml version="1.0"?>
<svg xmlns="http://www.w3.org/2000/svg" xmlns:xlink="http://www.w3.org/1999/xlink" id="Gradient" viewBox="0 0 512 512" width="512" height="512"><defs><linearGradient id="linear-gradient" x1="255.725" y1="496" x2="255.725" y2="20.137" gradientUnits="userSpaceOnUse"><stop offset="0" stop-color="#27c1e6"/><stop offset="0.5" stop-color="#c275e9"/><stop offset="1" stop-color="#f2515d"/></linearGradient></defs><path d="M245.842,373.749a8,8,0,1,1-11.605,11.013A153.115,153.115,0,0,1,220.812,368.5a8,8,0,1,1,13.012-9.31A137.319,137.319,0,0,0,245.842,373.749Zm242.3-89.042a8.008,8.008,0,0,0-8.667,7.273c-.135,1.556-.3,3.126-.488,4.67a137.534,137.534,0,0,1-2.438,13.984,8,8,0,1,0,15.6,3.561,154.163,154.163,0,0,0,2.722-15.61c.21-1.722.393-3.476.545-5.212A8,8,0,0,0,488.146,284.707ZM345.657,424.216a8,8,0,0,1-7.985,7.625c-.127,0-.253,0-.381-.008-2.963-.139-5.948-.393-8.918-.706A175.73,175.73,0,0,1,192,496C94.953,496,16,417.047,16,320c0-95.12,75.851-172.846,170.243-175.9C180.35,131.928,176,120.173,176,112a48,48,0,0,1,96,0c0,10.8-7.6,27.856-16.312,43.873a175.941,175.941,0,0,1,83.724,260.169A8,8,0,0,1,345.657,424.216ZM192,112c0,12.3,17.591,43.418,32,65.608,14.409-22.19,32-53.311,32-65.608a32,32,0,0,0-64,0Zm2.61,48.027c-.871-.014-1.743-.027-2.61-.027-5.087,0-10.115.249-15.082.716,2.2,11.089,1.62,20.106-1.764,26.866-1.108,2.214-2.406,4.529-3.78,6.98-4.933,8.8-11.072,19.747-8.272,26.987,1.685,4.356,6.875,8.011,15.428,10.862,12.295,4.1,16.791,12.968,20.405,20.1,4.754,9.381,7.9,15.576,31.75,11.6,17.528-2.921,29.478-1.991,38.747,3.015,8.929,4.823,14.129,12.654,20.151,21.721,5.026,7.569,10.723,16.147,20.074,25.5,8.959,8.96,23.184,11.946,42.3,8.946.022-1.095.042-2.19.042-3.289A160.057,160.057,0,0,0,247.634,169.946c-8,13.382-15.309,24.078-17.051,26.6a8,8,0,0,1-13.166,0C215.261,193.425,204.583,177.786,194.61,160.027ZM32,320a159,159,0,0,0,20.431,78.152c34.4-5.154,37.03-19.868,40.886-41.635.829-4.679,1.686-9.517,2.922-14.458,4.385-17.537,13.219-25.046,20.318-31.079C123.693,304.915,128,301.254,128,288c0-15.474-12.5-24.282-26.976-34.479-10.159-7.158-20.664-14.559-27.68-25.083A21.046,21.046,0,0,0,66,221.506,159.207,159.207,0,0,0,32,320ZM311.432,426.345a7.991,7.991,0,0,1,7.847-12.672c.691.129,1.394.237,2.091.355a159.114,159.114,0,0,0,29.426-74.41,99.386,99.386,0,0,1-12.344.818c-16.833,0-30.268-4.939-40.109-14.779-10.481-10.481-16.918-20.173-22.089-27.961-10.861-16.354-14.927-22.473-42.939-17.805a89.156,89.156,0,0,1-14.593,1.329c-23.173,0-29.349-12.189-34.058-21.479-3.281-6.471-5.418-10.226-11.194-12.152-13.294-4.431-21.8-11.251-25.291-20.269-5.517-14.266,3.011-29.477,9.239-40.583,1.279-2.281,2.487-4.435,3.427-6.315,1.782-3.559,1.823-9.724.209-17.407a159.9,159.9,0,0,0-84.43,46.248,37.7,37.7,0,0,1,10.029,10.295c5.363,8.044,14.215,14.28,23.586,20.882C126.063,251.589,144,264.226,144,288c0,20.654-9.075,28.367-17.081,35.171-6.45,5.482-12.02,10.216-15.158,22.769-1.1,4.4-1.908,8.959-2.689,13.368-3.755,21.2-7.973,44.976-47.4,53.407a159.81,159.81,0,0,0,249.76,13.63Zm164.676-88.226a8,8,0,0,0-10.753,3.518,135.461,135.461,0,0,1-9.689,16.192,8,8,0,1,0,13.122,9.154,151.5,151.5,0,0,0,10.838-18.111A8,8,0,0,0,476.108,338.119Zm-42.45,44.262A136.968,136.968,0,0,1,418.627,393.8a8,8,0,1,0,8.775,13.379,153.151,153.151,0,0,0,16.79-12.752,8,8,0,1,0-10.534-12.043Zm33.924-167.958a8,8,0,0,0,6.853-12.115,153.007,153.007,0,0,0-12.071-17.294,8,8,0,0,0-12.456,10.043,136.9,136.9,0,0,1,10.8,15.478A8,8,0,0,0,467.582,214.423Zm11.847,16.243a8,8,0,0,0-5.313,9.989,135.1,135.1,0,0,1,4.237,18.376,8,8,0,0,0,7.893,6.755,8.131,8.131,0,0,0,1.256-.1,8,8,0,0,0,6.656-9.149,151.246,151.246,0,0,0-4.74-20.56A8,8,0,0,0,479.429,230.666ZM389.079,408.4a135.3,135.3,0,0,1-18.176,4.98,8,8,0,1,0,3.139,15.689,151.266,151.266,0,0,0,20.333-5.571,8,8,0,0,0-5.3-15.1Zm-101.036-4.546a8,8,0,0,1-6.843,14.452c-.684-.313-1.359-.652-2.039-.975-11.644,14.748-27.3,25.518-43.932,29.819a57.945,57.945,0,0,1-14.449,2c-8.033,0-14.882-2.166-20.466-6.49C189.184,434.049,184,417.949,184,392c0-7.254-7.022-14.672-13.813-21.846-5.962-6.3-12.127-12.811-14.846-20.434-3.5-9.819-.711-19.249,8.289-28.029a67.99,67.99,0,0,1,24.935-14.611c14.061-4.474,35.358-5.481,56.958,15.132a7.992,7.992,0,0,1,1.133,1.35c5.709,8.564,12.016,9.668,20,11.067,9.554,1.673,22.639,3.965,28.931,22.841C299.852,370.257,297.1,387.159,288.043,403.856Zm-23.2,5.708c-.728-.447-1.466-.882-2.185-1.341a8,8,0,1,1,8.609-13.487c.869.555,1.756,1.085,2.639,1.62.012-.02.024-.04.035-.061,6.777-12.464,9.255-25.4,6.468-33.765-3.275-9.822-7.7-10.6-16.514-12.141-8.714-1.526-20.59-3.606-30.018-17.165-10.281-9.572-20.288-12.763-29.051-12.763-16.911,0-29.2,11.87-29.975,12.634l-.042.041c-8.326,8.116-6.108,12.176,7,26.018C190.334,368.163,200,378.374,200,392c0,20.031,3.4,32.822,10.109,38.016,4.566,3.534,11.669,4.089,21.115,1.646C243.719,428.431,255.59,420.5,264.845,409.564ZM481.706,125.823l-67.883,67.883a8,8,0,0,1-12.516-1.541l-10.544-17.572a23.962,23.962,0,0,1,.73-25.845l-11.611-11.611-39.6,39.6a8,8,0,0,1-11.313,0l-13.794-13.794a23.965,23.965,0,0,1-3.61-29.318l24.3-40.5-.852-.851c-12.492-12.492-12.831-32.8-.755-45.271a32,32,0,0,1,45.621-.373l1.241,1.24,40.5-24.3a23.963,23.963,0,0,1,29.318,3.61l13.794,13.794a8,8,0,0,1,0,11.313l-39.6,39.6,11.611,11.611a23.962,23.962,0,0,1,25.845-.73l17.572,10.544a8,8,0,0,1,1.541,12.516Zm-18.559-4.068-8.787-5.272a7.988,7.988,0,0,0-9.772,1.2l-2.481,2.481a8,8,0,0,1-11.313,0L408.167,97.539a8,8,0,0,1,0-11.313l39.6-39.6-8.138-8.137a7.991,7.991,0,0,0-9.772-1.2L384,64.8a8,8,0,0,1-9.772-1.2l-5.657-5.657a16,16,0,0,0-22.814.189c-6.036,6.234-5.778,16.474.575,22.828l5.268,5.268A8,8,0,0,1,352.8,96l-27.514,45.856a7.989,7.989,0,0,0,1.2,9.773l8.137,8.138,39.6-39.6a8,8,0,0,1,11.313,0l22.628,22.627a8,8,0,0,1,0,11.313l-2.481,2.481a7.987,7.987,0,0,0-1.2,9.772l5.272,8.787ZM240,112a16,16,0,1,0-16,16A16.019,16.019,0,0,0,240,112Z" style="fill:url(#linear-gradient)"/></svg>
