<?xml version="1.0"?>
<svg xmlns="http://www.w3.org/2000/svg" xmlns:xlink="http://www.w3.org/1999/xlink" id="Gradient" viewBox="0 0 512 512" width="512" height="512"><defs><linearGradient id="linear-gradient" x1="256" y1="496" x2="256" y2="16" gradientUnits="userSpaceOnUse"><stop offset="0" stop-color="#27c1e6"/><stop offset="0.5" stop-color="#c275e9"/><stop offset="1" stop-color="#f2515d"/></linearGradient></defs><path d="M488,64H384V24a8,8,0,0,0-8-8H136a8,8,0,0,0-8,8V64H24a8,8,0,0,0-8,8V392a8,8,0,0,0,8,8H232v32.662c-30.216,1.652-58.143,6.4-80.353,13.807C112.266,459.6,104,476.3,104,488a8,8,0,0,0,9.568,7.845C114.361,495.686,193.555,480,256,480s141.639,15.686,142.432,15.845A8,8,0,0,0,408,488c0-11.7-8.267-28.4-47.646-41.531-22.21-7.4-50.138-12.155-80.354-13.807V400H488a8,8,0,0,0,8-8V72A8,8,0,0,0,488,64ZM144,128h32v32H144Zm0,48h32v32H144Zm0,48h32v32H144Zm0,48h32v32H144Zm48-96H320V304H192Zm144-48h32v32H336Zm32,128H336V224h32Zm0-80v32H336V176Zm-32,96h32v32H336Zm0-160V80h32v32Zm-16,48H192V32H320ZM176,112H144V80h32ZM128,352H64V112h64Zm16-32h32v32H144Zm48,0H320v32H192Zm144,0h32v32H336Zm48-208h64V352H384ZM368,64H336V32h32ZM176,32V64H144V32ZM385.725,477.228C359.047,472.561,303.611,464,256,464s-103.046,8.561-129.725,13.228C142.423,462.775,188.9,448,256,448S369.576,462.775,385.725,477.228ZM264,432.076q-3.984-.071-8-.076t-8,.076V400h16ZM480,384H32V80h96V96H56a8,8,0,0,0-8,8V360a8,8,0,0,0,8,8H456a8,8,0,0,0,8-8V104a8,8,0,0,0-8-8H384V80h96ZM283.578,232.845l-48-24A8,8,0,0,0,224,216v48a8,8,0,0,0,11.578,7.155l48-24a8,8,0,0,0,0-14.31ZM240,251.056V228.944L262.111,240Z" style="fill:url(#linear-gradient)"/></svg>
