<?xml version="1.0"?>
<svg xmlns="http://www.w3.org/2000/svg" xmlns:xlink="http://www.w3.org/1999/xlink" id="Gradient" viewBox="0 0 512 512" width="512" height="512"><defs><linearGradient id="linear-gradient" x1="256" y1="496" x2="256" y2="16" gradientUnits="userSpaceOnUse"><stop offset="0" stop-color="#27c1e6"/><stop offset="0.5" stop-color="#c275e9"/><stop offset="1" stop-color="#f2515d"/></linearGradient></defs><path d="M64,168a8,8,0,0,1,8-8H296a8,8,0,0,1,0,16H72A8,8,0,0,1,64,168Zm8,56H264a8,8,0,0,0,0-16H72a8,8,0,0,0,0,16Zm152,40a8,8,0,0,0-8-8H72a8,8,0,0,0,0,16H216A8,8,0,0,0,224,264Zm-24,40H72a8,8,0,0,0,0,16H200a8,8,0,0,0,0-16ZM168,128H296a8,8,0,0,0,0-16H168a8,8,0,0,0,0,16Zm16,224H72a8,8,0,0,0,0,16H184a8,8,0,0,0,0-16ZM493.674,184.929a8,8,0,0,1-.034,11.314l-67.993,67.576a8,8,0,1,1-11.279-11.348l62.319-61.937L465.425,179.2,400,244.627V488a8,8,0,0,1-8,8H72a8,8,0,0,1-8-8V448H24a8,8,0,0,1-8-8V120a8,8,0,0,1,2.343-5.657l96-96A8,8,0,0,1,120,16H344a8,8,0,0,1,8,8V64h40a8,8,0,0,1,8,8v59.491l14.6-14.6L425.91,105.58a40,40,0,0,1,56.569,56.568l-5.741,5.741ZM363.685,258.315l-33.941-33.941-67.9,67.9,33.837,34.046ZM254,307.083l-13.55,40.322,40.4-13.3ZM454.2,167.806l-33.942-33.942-79.2,79.2L375,247Zm-22.628-45.255,33.941,33.941,5.657-5.657a24,24,0,0,0-33.941-33.941ZM352,80v99.491l32-32V80ZM43.313,112H112V43.313ZM32,432H336V308.627l-34.541,34.541-.007-.007a7.988,7.988,0,0,1-3.287,2.088L230.284,367.6A8,8,0,0,1,220.2,357.452l22.765-67.744a7.972,7.972,0,0,1,1.938-3.1l-.011-.01L336,195.491V32H128v88a8,8,0,0,1-8,8H32ZM384,260.627l-32,32V440a8,8,0,0,1-8,8H80v32H384Z" style="fill:url(#linear-gradient)"/></svg>
