<?xml version="1.0"?>
<svg xmlns="http://www.w3.org/2000/svg" xmlns:xlink="http://www.w3.org/1999/xlink" id="Gradient" viewBox="0 0 512 512" width="512" height="512"><defs><linearGradient id="linear-gradient" x1="256" y1="488" x2="256" y2="24" gradientUnits="userSpaceOnUse"><stop offset="0" stop-color="#27c1e6"/><stop offset="0.5" stop-color="#c275e9"/><stop offset="1" stop-color="#f2515d"/></linearGradient></defs><path d="M430.51,203.35A8,8,0,0,0,424,200h-8V136h64a8,8,0,0,0,8-8V64a8,8,0,0,0-8-8H416V32a8,8,0,0,0-8-8H136a8,8,0,0,0-8,8V200H112v-8a24.028,24.028,0,0,0-24-24H56a24.028,24.028,0,0,0-24,24v8H24a8,8,0,0,0-8,8V480a8,8,0,0,0,8,8H488a8,8,0,0,0,8-8V297.6a8.008,8.008,0,0,0-1.49-4.651ZM317.641,375.668l.271.4a56,56,0,1,1,6.2-52.6,39.98,39.98,0,0,0-6.469,52.2Zm20.428-60.3a72.014,72.014,0,1,0-10.719,74.674l13.842,20.49a95.966,95.966,0,1,1,22.5-95.1,39.643,39.643,0,0,0-25.618-.063ZM56,296H32V280H180.141A111.779,111.779,0,0,0,193.7,424H128V368A72.081,72.081,0,0,0,56,296Zm72,144h86.369a111.945,111.945,0,0,0,115.347,0H361.1l6.927,10.253a87.423,87.423,0,0,0,3.3,21.747H128ZM383.087,329.729A111.487,111.487,0,0,0,363.925,280H416v98.361l-32.081-47.479C383.653,330.487,383.366,330.112,383.087,329.729ZM400,200H384V136h16ZM256,128V104h32v24a8.009,8.009,0,0,1-8,8H264A8.009,8.009,0,0,1,256,128Zm40-40H256V80a8.009,8.009,0,0,1,8-8h40v8A8.009,8.009,0,0,1,296,88Zm-56-8v48a23.844,23.844,0,0,0,2.37,10.394A40.069,40.069,0,0,0,216,176v24H176V72h65.376A23.889,23.889,0,0,0,240,80Zm-8,96a24.027,24.027,0,0,1,24-24h32a24.027,24.027,0,0,1,24,24v24H232Zm69.63-37.606A23.844,23.844,0,0,0,304,128V102.624A24.039,24.039,0,0,0,320,80V72h40v4.687l-29.657,29.656A8,8,0,0,0,336,120h24v8a8,8,0,0,0,8,8v64H328V176A40.069,40.069,0,0,0,301.63,138.394ZM472,120H376v-8a8,8,0,0,0-8-8H355.313l18.344-18.343A8,8,0,0,0,376,80V72h96ZM144,40H400V56H168a8,8,0,0,0-8,8V200H144ZM48,192a8.009,8.009,0,0,1,8-8H88a8.009,8.009,0,0,1,8,8v8H48Zm368,24v48H350.376q-1.6-1.569-3.268-3.084A111.892,111.892,0,0,0,193.7,264H32V216ZM32,312H56a56.063,56.063,0,0,1,56,56V472H32ZM480,472H388.125a71.314,71.314,0,0,1-4.109-22.484,8,8,0,0,0-1.227-6L330.9,366.708a24,24,0,1,1,39.764-26.87l46.71,69.131A8,8,0,0,0,432,404.49V232.963l48,67.2ZM400,96a8,8,0,0,1,8-8h40a8,8,0,0,1,0,16H408A8,8,0,0,1,400,96ZM48,240a8,8,0,0,1,8-8h48a8,8,0,0,1,0,16H56A8,8,0,0,1,48,240Zm224,80a24,24,0,1,0,24,24A24.027,24.027,0,0,0,272,320Zm0,32a8,8,0,1,1,8-8A8.009,8.009,0,0,1,272,352Z" style="fill:url(#linear-gradient)"/></svg>
